<svg xmlns="http://www.w3.org/2000/svg" xmlns:xlink="http://www.w3.org/1999/xlink" viewBox="0 0 262.1566 191.8835"><defs><style>.a{opacity:0.65;}.b,.c,.f{fill:#f9e9e1;}.b,.d,.e{stroke:#f9e9e1;}.b,.d,.e,.g,.h,.i{stroke-miterlimit:10;}.b,.d{stroke-width:0.25px;}.c,.j{opacity:0.5;}.d,.e,.g,.h,.i{fill:none;}.g{stroke:url(#a);}.h{stroke:url(#b);}.i{stroke:url(#c);}</style><radialGradient id="a" cx="52.1592" cy="50.7617" r="8.0585" gradientUnits="userSpaceOnUse"><stop offset="0.6927" stop-color="#11031c"/><stop offset="0.9028" stop-color="#11051a"/><stop offset="1" stop-color="#0f0b13"/></radialGradient><radialGradient id="b" cx="131.3917" cy="50.7617" r="8.0585" xlink:href="#a"/><radialGradient id="c" cx="210.6242" cy="50.7617" r="8.0585" xlink:href="#a"/></defs><title>console-vector</title><g class="a"><rect class="b" x="39.5616" y="35.6447" width="25.1951" height="30.2342" rx="3.2158"/><circle class="b" cx="42.0868" cy="38.1747" r="1.5223"/><circle class="b" cx="62.2268" cy="38.1653" r="1.5128"/><circle class="b" cx="42.0854" cy="63.3502" r="1.5209"/><circle class="b" cx="62.2188" cy="63.3502" r="1.5209"/><rect class="c" x="25.079" y="11.3156" width="54.1605" height="17.7414"/><rect class="b" x="118.7941" y="35.6447" width="25.1951" height="30.2342" rx="3.2158"/><circle class="b" cx="121.3193" cy="38.1747" r="1.5223"/><circle class="b" cx="141.4593" cy="38.1653" r="1.5128"/><circle class="b" cx="121.3179" cy="63.3502" r="1.5209"/><circle class="b" cx="141.4513" cy="63.3502" r="1.5209"/><rect class="c" x="104.3115" y="11.3156" width="54.1605" height="17.7414"/><rect class="b" x="198.0266" y="35.6447" width="25.1951" height="30.2342" rx="3.2158"/><circle class="b" cx="200.5518" cy="38.1747" r="1.5223"/><circle class="b" cx="220.6918" cy="38.1653" r="1.5128"/><circle class="b" cx="200.5504" cy="63.3502" r="1.5209"/><circle class="b" cx="220.6838" cy="63.3502" r="1.5209"/><rect class="c" x="183.544" y="11.3156" width="54.1605" height="17.7414"/><line class="d" x1="0.3707" y1="76.8849" x2="262.1545" y2="76.8849"/><rect class="d" x="210.3295" y="85.3947" width="40.3122" height="91.1569"/><rect class="c" x="96.2202" y="88.1977" width="47.2342" height="10.5911"/><rect class="c" x="216.5392" y="91.731" width="27.8928" height="10.5911"/><rect class="c" x="105.8909" y="108.3597" width="27.8928" height="6.3096"/><rect class="c" x="42.9277" y="88.1977" width="47.2342" height="10.5911"/><rect class="c" x="71.7378" y="149.2009" width="40.86" height="8.0404"/><rect class="c" x="58.7054" y="175.3677" width="66.9248" height="3.6614"/><circle class="d" cx="66.5447" cy="124.6076" r="15.7467"/><rect class="c" x="220.382" y="147.2748" width="20.2072" height="6.3096"/><path class="e" d="M52.3984,138.754a20.006,20.006,0,1,1,28.2927,0"/><rect class="f" x="112.5978" y="160.3916" width="22.0879" height="11.2236" rx="1.6079"/><rect class="g" x="44.6007" y="43.2032" width="15.1171" height="15.1171" rx="3.2158"/><rect class="h" x="123.8332" y="43.2032" width="15.1171" height="15.1171" rx="3.2158"/><rect class="i" x="203.0657" y="43.2032" width="15.1171" height="15.1171" rx="3.2158"/><rect class="f" x="224.4387" y="108.0391" width="12.0937" height="24.1873" rx="1.6079"/><circle class="f" cx="230.4856" cy="160.3916" r="2.5195"/><circle class="f" cx="21.7608" cy="92.4666" r="2.5195"/><rect class="f" x="151.948" y="88.1977" width="50.3903" height="23.1795" rx="3.2158"/><rect class="f" x="151.948" y="119.3834" width="50.3903" height="23.1795" rx="3.2158"/><rect class="f" x="151.948" y="150.5691" width="50.3903" height="23.1795" rx="3.2158"/><rect class="c" x="19.2413" y="104.3417" width="5.039" height="69.0841" rx="2.5195"/><g class="j"><rect class="f" x="26.8447" y="113.274" width="5.039" height="51.2193" rx="2.5195"/><rect class="f" x="11.6378" y="113.274" width="5.039" height="51.2193" rx="2.5195"/></g><circle class="f" cx="66.5447" cy="124.3193" r="3.5273"/><circle class="f" cx="119.8373" cy="124.3193" r="6.0468"/><rect class="c" x="58.2015" y="164.9956" width="67.4287" height="2.0156" rx="1.0078"/><rect class="d" x="0.125" y="0.125" width="261.9066" height="191.6335"/></g></svg>