<svg xmlns="http://www.w3.org/2000/svg" xmlns:xlink="http://www.w3.org/1999/xlink" viewBox="0 0 462.0714 680.0309"><defs><style>.a,.c,.h,.j,.k,.l,.n{fill:none;}.a,.c,.f,.h{stroke:#f9e9e1;}.a,.c,.f,.h,.j,.k,.l,.n{stroke-miterlimit:10;}.a,.b,.d{opacity:0.3;}.d,.f,.g,.i{fill:#f9e9e1;}.e{opacity:0.65;}.f,.h{stroke-width:0.25px;}.g,.m{opacity:0.5;}.j{stroke:url(#a);}.k{stroke:url(#b);}.l{stroke:url(#c);}.n{stroke:#ed7e4f;stroke-width:3px;}.o{fill:#ed7e4f;}</style><radialGradient id="a" cx="91.859" cy="431.3349" r="13.8254" gradientUnits="userSpaceOnUse"><stop offset="0.6927" stop-color="#11031c"/><stop offset="0.9028" stop-color="#11051a"/><stop offset="1" stop-color="#0f0b13"/></radialGradient><radialGradient id="b" cx="231.5424" cy="431.3349" r="13.8254" xlink:href="#a"/><radialGradient id="c" cx="371.2258" cy="431.3349" r="13.8254" xlink:href="#a"/></defs><title>instruction-connect</title><rect class="a" x="221.5781" y="90.9362" width="137.9606" height="53.774"/><rect class="a" x="221.5781" y="33.7898" width="137.9606" height="53.774"/><line class="a" x1="254.8113" y1="37.4688" x2="254.8113" y2="83.9462"/><line class="a" x1="254.8726" y1="94.5845" x2="254.8726" y2="141.0619"/><rect class="a" x="71.0966" y="0.5" width="320.0033" height="171.7767"/><g class="b"><line class="c" x1="221.7474" y1="213.4892" x2="221.7474" y2="177.4715"/><line class="c" x1="241.1416" y1="177.4715" x2="241.1416" y2="213.4892"/></g><line class="a" x1="189.8856" y1="221.1083" x2="271.6181" y2="221.1083"/><rect class="d" x="233.5387" y="45.5" width="10" height="32"/><rect class="d" x="302.0387" y="21" width="10" height="71" transform="translate(363.5387 -250.5387) rotate(90)"/><rect class="d" x="233.5387" y="101.5" width="10" height="32"/><line class="a" x1="271.5387" y1="66.5" x2="342.5387" y2="66.5"/><rect class="d" x="302.0387" y="80" width="10" height="71" transform="translate(422.5387 -191.5387) rotate(90)"/><line class="a" x1="271.5387" y1="125.5" x2="342.5387" y2="125.5"/><rect class="d" x="115.0387" y="34" width="56" height="43"/><rect class="d" x="115.0387" y="96" width="56" height="43"/><g class="e"><rect class="f" x="69.65" y="404.6841" width="44.4179" height="53.3015" rx="5.6693"/><circle class="f" cx="74.1017" cy="409.1446" r="2.6837"/><circle class="f" cx="109.6078" cy="409.1279" r="2.6671"/><circle class="f" cx="74.0992" cy="453.5277" r="2.6812"/><circle class="f" cx="109.5936" cy="453.5277" r="2.6812"/><rect class="g" x="44.1177" y="361.7931" width="95.4825" height="31.2773"/><rect class="f" x="209.3334" y="404.6841" width="44.4179" height="53.3015" rx="5.6693"/><circle class="f" cx="213.7851" cy="409.1446" r="2.6837"/><circle class="f" cx="249.2912" cy="409.1279" r="2.6671"/><circle class="f" cx="213.7826" cy="453.5277" r="2.6812"/><circle class="f" cx="249.277" cy="453.5277" r="2.6812"/><rect class="g" x="183.8011" y="361.7931" width="95.4825" height="31.2773"/><rect class="f" x="349.0168" y="404.6841" width="44.4179" height="53.3015" rx="5.6693"/><circle class="f" cx="353.4685" cy="409.1446" r="2.6837"/><circle class="f" cx="388.9746" cy="409.1279" r="2.6671"/><circle class="f" cx="353.466" cy="453.5277" r="2.6812"/><circle class="f" cx="388.9604" cy="453.5277" r="2.6812"/><rect class="g" x="323.4845" y="361.7931" width="95.4825" height="31.2773"/><line class="h" x1="0.5582" y1="477.3888" x2="462.0714" y2="477.3888"/><rect class="h" x="370.7061" y="492.3913" width="71.0687" height="160.7055"/><rect class="g" x="169.5366" y="497.3328" width="83.2717" height="18.6717"/><rect class="g" x="381.6536" y="503.5618" width="49.1737" height="18.6717"/><rect class="g" x="186.5856" y="532.8775" width="49.1737" height="11.1235"/><rect class="g" x="75.5842" y="497.3328" width="83.2717" height="18.6717"/><rect class="g" x="126.3752" y="604.8788" width="72.0344" height="14.1749"/><rect class="g" x="103.3996" y="651.0097" width="117.9855" height="6.4548"/><circle class="h" cx="117.2201" cy="561.5219" r="27.7607"/><rect class="g" x="388.4283" y="601.4832" width="35.6243" height="11.1235"/><path class="c" d="M92.2806,586.4614a35.27,35.27,0,1,1,49.8789,0"/><rect class="i" x="198.4096" y="624.6075" width="38.9401" height="19.7867" rx="2.8346"/><rect class="j" x="78.5336" y="418.0095" width="26.6508" height="26.6508" rx="5.6693"/><rect class="k" x="218.217" y="418.0095" width="26.6508" height="26.6508" rx="5.6693"/><rect class="l" x="357.9004" y="418.0095" width="26.6508" height="26.6508" rx="5.6693"/><rect class="i" x="395.5802" y="532.3123" width="21.3206" height="42.6412" rx="2.8346"/><circle class="i" cx="406.2405" cy="624.6075" r="4.4418"/><circle class="i" cx="38.2679" cy="504.8587" r="4.4418"/><rect class="i" x="267.7821" y="497.3328" width="88.8358" height="40.8645" rx="5.6693"/><rect class="i" x="267.7821" y="552.3118" width="88.8358" height="40.8645" rx="5.6693"/><rect class="i" x="267.7821" y="607.2908" width="88.8358" height="40.8645" rx="5.6693"/><rect class="g" x="33.8261" y="525.7939" width="8.8836" height="121.7921" rx="4.4418"/><g class="m"><rect class="i" x="47.2307" y="541.5413" width="8.8836" height="90.2974" rx="4.4418"/><rect class="i" x="20.4216" y="541.5413" width="8.8836" height="90.2974" rx="4.4418"/></g><circle class="i" cx="117.2201" cy="561.0136" r="6.2185"/><circle class="i" cx="211.1725" cy="561.0136" r="10.6603"/><rect class="g" x="102.5113" y="632.7241" width="118.8738" height="3.5534" rx="1.7767"/><rect class="h" x="0.125" y="342.0645" width="461.7298" height="337.8414"/></g><path class="n" d="M71.5714,342.5c0-73.8465,54.7966-83.8465,54.7966-150.0943"/><path class="o" d="M114.5626,170.5524h23.0035a0,0,0,0,1,0,0V185.145a8.4109,8.4109,0,0,1-8.4109,8.4109h-6.1818a8.4109,8.4109,0,0,1-8.4109-8.4109V170.5524A0,0,0,0,1,114.5626,170.5524Z"/><path class="n" d="M105.8205,342.1757c0-73.8464,54.7967-83.8464,54.7967-150.0942"/><path class="o" d="M148.8117,170.2281h23.0035a0,0,0,0,1,0,0v14.5926a8.4109,8.4109,0,0,1-8.4109,8.4109h-6.1818a8.4109,8.4109,0,0,1-8.4109-8.4109V170.2281A0,0,0,0,1,148.8117,170.2281Z"/></svg>