<svg xmlns="http://www.w3.org/2000/svg" viewBox="0 0 177.1852 163.3069"><defs><style>.a,.d,.f{fill:none;}.a,.d{stroke:#f9e9e1;}.a,.e,.f{stroke-miterlimit:10;}.a{stroke-width:0.5px;}.a,.b{opacity:0.5;}.c{fill:#f9e9e1;}.d{stroke-linecap:round;stroke-linejoin:round;}.e{fill:#110b18;}.e,.f{stroke:#49bbce;stroke-width:2px;}</style></defs><title>instructionIcon-knob</title><polyline class="a" points="168.4 35.713 176.935 35.713 176.935 0.25 0.25 0.25 0.25 35.713 87.749 35.713 87.749 112.75"/><g class="b"><path class="c" d="M43.3769,11.9746H37.538v4.7315h5.0889v1.0166H37.538v5.7832H36.3847V10.9316h7.1474Z"/><path class="c" d="M53.52,13.75q.28.0469.6826.1465l-.1289,3.0205H52.9765V15.041l.0185-.2383a2.1462,2.1462,0,0,0-.2295-.0088,2.7069,2.7069,0,0,0-1.98.8008,5.86,5.86,0,0,0-1.3233,2.4932v4.4658h1.9776v.9522H46.7626v-.9522h1.5645V14.8574H46.7626v-.9609h2.4346l.21,2.3066a5.1477,5.1477,0,0,1,1.4092-1.876,3.3157,3.3157,0,0,1,2.0869-.622A3.8512,3.8512,0,0,1,53.52,13.75Z"/><path class="c" d="M58.4765,19.1592a4.3657,4.3657,0,0,0,.4209,1.9443,2.73,2.73,0,0,0,1.0654,1.1621,2.9171,2.9171,0,0,0,1.4785.38,3.9323,3.9323,0,0,0,1.3223-.21,5.5941,5.5941,0,0,0,1.2676-.6777l.5947.8516a5.3048,5.3048,0,0,1-3.1387,1.0791,4.0809,4.0809,0,0,1-2.2656-.6172,3.9188,3.9188,0,0,1-1.459-1.7432,6.356,6.356,0,0,1-.5039-2.6172,6.26,6.26,0,0,1,.5078-2.5859,4.1533,4.1533,0,0,1,1.4326-1.7656,3.64,3.64,0,0,1,2.1143-.6367,3.3769,3.3769,0,0,1,3.28,2.1738,6.3153,6.3153,0,0,1,.4443,2.4756c0,.1406-.01.4023-.0273.7871Zm1.45-4.0039a2.6366,2.6366,0,0,0-.9932,1.1211,4.76,4.76,0,0,0-.4394,1.8574h5.4638a3.981,3.981,0,0,0-.7412-2.4981,2.314,2.314,0,0,0-1.876-.8515A2.6945,2.6945,0,0,0,59.9267,15.1553Z"/><path class="c" d="M75.36,21.7949l.5947.7686a4.7305,4.7305,0,0,1-1.4912.8183,5.0462,5.0462,0,0,1-1.666.3067,4.4178,4.4178,0,0,1-2.3614-.6035,3.8545,3.8545,0,0,1-1.4912-1.7207,6.24,6.24,0,0,1-.5127-2.626,6.2073,6.2073,0,0,1,.5127-2.5811,4.0972,4.0972,0,0,1,1.501-1.7842,4.1947,4.1947,0,0,1,2.36-.65,4.8371,4.8371,0,0,1,3.121,1.09l-.6044.8145a4.54,4.54,0,0,0-2.5713-.8975,2.8062,2.8062,0,0,0-1.5879.458,2.995,2.995,0,0,0-1.0791,1.3584,5.5193,5.5193,0,0,0-.39,2.1924,5.4238,5.4238,0,0,0,.3848,2.1826A2.7793,2.7793,0,0,0,71.1552,22.22a2.98,2.98,0,0,0,1.5967.4258A4.44,4.44,0,0,0,75.36,21.7949Z"/><path class="c" d="M80.75,20.77a2.161,2.161,0,0,0,.4346,1.4961,1.7921,1.7921,0,0,0,1.3779.4717,3.1206,3.1206,0,0,0,1.6514-.49,3.7291,3.7291,0,0,0,1.24-1.1846v-7.166h1.1348v9.6094h-.9522L85.5087,22.16a3.9906,3.9906,0,0,1-1.418,1.1259,3.8909,3.8909,0,0,1-1.6933.4024,2.7855,2.7855,0,0,1-2.0772-.7178,2.8272,2.8272,0,0,1-.7051-2.0635V13.8965H80.75Z"/><path class="c" d="M91.4208,19.1592a4.3671,4.3671,0,0,0,.4209,1.9443,2.7308,2.7308,0,0,0,1.0654,1.1621,2.9172,2.9172,0,0,0,1.4786.38,3.9317,3.9317,0,0,0,1.3222-.21,5.59,5.59,0,0,0,1.2676-.6777l.5947.8516a5.3048,5.3048,0,0,1-3.1386,1.0791,4.081,4.081,0,0,1-2.2657-.6172,3.9188,3.9188,0,0,1-1.459-1.7432,6.356,6.356,0,0,1-.5039-2.6172,6.26,6.26,0,0,1,.5079-2.5859,4.1525,4.1525,0,0,1,1.4326-1.7656,3.64,3.64,0,0,1,2.1142-.6367,3.5014,3.5014,0,0,1,1.9951.5634,3.5368,3.5368,0,0,1,1.2852,1.61,6.3153,6.3153,0,0,1,.4443,2.4756c0,.1406-.01.4023-.0273.7871Zm1.45-4.0039a2.6366,2.6366,0,0,0-.9932,1.1211,4.7617,4.7617,0,0,0-.4394,1.8574h5.4639a3.981,3.981,0,0,0-.7413-2.4981,2.3139,2.3139,0,0,0-1.8759-.8515A2.6946,2.6946,0,0,0,92.871,15.1553Z"/><path class="c" d="M101.578,23.5059V13.8965h.9522l.0918,1.4a3.5577,3.5577,0,0,1,.915-.8418,4.6316,4.6316,0,0,1,1.1572-.5449,3.9337,3.9337,0,0,1,1.1583-.1875,2.6645,2.6645,0,0,1,2.0771.7236,3.0522,3.0522,0,0,1,.6494,2.1045v6.9551h-1.1348V17.7676a10.3971,10.3971,0,0,0-.123-1.8438,1.5192,1.5192,0,0,0-.5225-.9472,1.9718,1.9718,0,0,0-1.2216-.3106,2.7037,2.7037,0,0,0-1.1661.2647,3.8534,3.8534,0,0,0-.9931.6679,4.5559,4.5559,0,0,0-.7051.8243v7.083Z"/><path class="c" d="M119.286,21.7949l.5948.7686a4.7305,4.7305,0,0,1-1.4912.8183,5.0463,5.0463,0,0,1-1.6661.3067,4.4172,4.4172,0,0,1-2.3613-.6035,3.8545,3.8545,0,0,1-1.4912-1.7207,6.24,6.24,0,0,1-.5127-2.626,6.2073,6.2073,0,0,1,.5127-2.5811,4.0972,4.0972,0,0,1,1.501-1.7842,4.1946,4.1946,0,0,1,2.36-.65,4.8372,4.8372,0,0,1,3.1211,1.09l-.6045.8145a4.54,4.54,0,0,0-2.5713-.8975,2.8061,2.8061,0,0,0-1.5878.458,2.9944,2.9944,0,0,0-1.0791,1.3584,5.5193,5.5193,0,0,0-.39,2.1924,5.422,5.422,0,0,0,.3848,2.1826A2.7787,2.7787,0,0,0,115.081,22.22a2.9792,2.9792,0,0,0,1.5966.4258A4.44,4.44,0,0,0,119.286,21.7949Z"/><path class="c" d="M124.0263,13.8965h4.081v8.6211h2.792v.9883h-6.9648v-.9883h3.0381V14.8848h-2.9463Zm3.7021-4.086a.8778.8778,0,0,1,.2608.6456.9026.9026,0,0,1-.9522.9423.8841.8841,0,0,1-.6679-.2656.933.933,0,0,1-.2559-.6767.8781.8781,0,0,1,.2607-.6456.8981.8981,0,0,1,.6631-.2607A.9362.9362,0,0,1,127.7284,9.8105Z"/><path class="c" d="M141.0478,21.6113a1.4954,1.4954,0,0,0,.1923.8467,1.1007,1.1007,0,0,0,.6309.4072l-.3105.833a2.0938,2.0938,0,0,1-1.003-.4257,1.761,1.761,0,0,1-.581-.9561,3.303,3.303,0,0,1-1.2578,1.02,3.999,3.999,0,0,1-1.7071.3516,3.4784,3.4784,0,0,1-1.6338-.3614,2.4934,2.4934,0,0,1-1.0566-1.0292,3.2048,3.2048,0,0,1-.3662-1.5645A2.5458,2.5458,0,0,1,135.1,18.4912a5.8805,5.8805,0,0,1,3.3125-.7783h1.4551v-.9336a1.8416,1.8416,0,0,0-.6182-1.5557,2.8848,2.8848,0,0,0-1.789-.4756,7.3717,7.3717,0,0,0-2.461.4854l-.33-.9336a9.3282,9.3282,0,0,1,1.5468-.4443,7.7435,7.7435,0,0,1,1.4092-.1328,4.2387,4.2387,0,0,1,1.876.3759,2.6162,2.6162,0,0,1,1.1582,1.0518,3.15,3.15,0,0,1,.3887,1.5928Zm-2.3526.7871a3.549,3.549,0,0,0,1.1719-1.07V18.582h-1.5928a3.8173,3.8173,0,0,0-2.3467.5674,1.9444,1.9444,0,0,0-.7187,1.62,1.7773,1.7773,0,0,0,2.0225,2.0137A2.9513,2.9513,0,0,0,138.6952,22.3984Z"/></g><g class="b"><line class="d" x1="33.0792" y1="130.4191" x2="23.2899" y2="133.0429"/><line class="d" x1="33.0759" y1="101.2953" x2="23.286" y2="98.6737"/><line class="d" x1="47.6331" y1="76.0707" x2="40.4651" y2="68.9059"/><line class="d" x1="72.8512" y1="61.5022" x2="70.2252" y2="51.7135"/><line class="d" x1="101.975" y1="61.4924" x2="104.5944" y2="51.7019"/><line class="d" x1="127.2029" y1="76.0439" x2="134.3661" y2="68.8743"/><line class="d" x1="141.7771" y1="101.2587" x2="151.5652" y2="98.6305"/><line class="d" x1="141.7934" y1="130.3825" x2="151.5845" y2="132.9997"/><path class="d" d="M84.1957,59.753a56.1772,56.1772,0,0,0-40.0386,92.0723,5.6645,5.6645,0,0,1-.3362,7.6363l-3.3453,3.3453"/><path class="d" d="M134.4188,162.7753l-3.3439-3.3145a5.6655,5.6655,0,0,1-.3539-7.654A56.1772,56.1772,0,0,0,90.6131,59.75"/></g><path class="e" d="M91.3607,70.2742l7.7526,3.58a10.3609,10.3609,0,0,0,2.33.7569l8.3762,1.6607A10.3641,10.3641,0,0,1,116.85,81.38l4.1679,7.4531a10.3615,10.3615,0,0,0,1.44,1.9815l5.8,6.267a10.3643,10.3643,0,0,1,2.6855,8.2649l-1.009,8.4794a10.3661,10.3661,0,0,0,0,2.4494l1.009,8.4794a10.3643,10.3643,0,0,1-2.6855,8.2649l-5.8,6.267a10.3621,10.3621,0,0,0-1.44,1.9816L116.85,148.721a10.3643,10.3643,0,0,1-7.0305,5.1079l-8.3762,1.6607a10.366,10.366,0,0,0-2.33.7569l-7.7526,3.58a10.3642,10.3642,0,0,1-8.69,0l-7.7526-3.58a10.3676,10.3676,0,0,0-2.3295-.7569l-8.3762-1.6607a10.3644,10.3644,0,0,1-7.0306-5.1079l-4.1678-7.4531a10.3626,10.3626,0,0,0-1.44-1.9816l-5.8-6.267a10.3646,10.3646,0,0,1-2.6854-8.2649l1.009-8.4794a10.3661,10.3661,0,0,0,0-2.4494l-1.009-8.4794a10.3646,10.3646,0,0,1,2.6854-8.2649l5.8-6.267a10.3619,10.3619,0,0,0,1.44-1.9815L57.1815,81.38a10.3643,10.3643,0,0,1,7.0306-5.108l8.3762-1.6607a10.3626,10.3626,0,0,0,2.3295-.7569l7.7526-3.58A10.365,10.365,0,0,1,91.3607,70.2742Z"/><path class="e" d="M87.0277,89.6432A25.407,25.407,0,0,1,112.4348,115.05"/><path class="e" d="M87.0277,140.4574A25.407,25.407,0,0,1,61.6206,115.05"/><polyline class="f" points="119.016 108.871 112.085 115.802 105.154 108.871"/><polyline class="f" points="55.134 121.575 62.064 114.644 68.995 121.575"/></svg>