<svg xmlns="http://www.w3.org/2000/svg" viewBox="0 0 288.2935 102.8645"><defs><style>.a{fill:#49bbce;}.b,.f{fill:none;}.b{stroke:#f9e9e1;stroke-width:0.5px;}.b,.e,.f{stroke-miterlimit:10;}.b,.c{opacity:0.5;}.d{fill:#f9e9e1;}.e{fill:#110b18;}.e,.f{stroke:#49bbce;stroke-width:2px;}</style></defs><title>instructionIcon-slider</title><rect class="a" y="77.816" width="288.2935" height="3.2032" rx="1.6016"/><polyline class="b" points="225.031 35.713 233.566 35.713 233.566 0.25 56.881 0.25 56.881 35.713 144.38 35.713 144.38 80.25"/><g class="c"><path class="d" d="M78.9241,22.168a5.6841,5.6841,0,0,1-3.8135,1.3379h-2.64v-12.17h2.4531a7.5107,7.5107,0,0,1,2.8.4873,4.0484,4.0484,0,0,1,1.9971,1.82,7.43,7.43,0,0,1,.7744,3.7148Q80.4954,20.8315,78.9241,22.168Zm-.2578-8.02a3.0125,3.0125,0,0,0-1.4609-1.4619,5.1116,5.1116,0,0,0-1.9356-.35H73.596V22.5313h1.7a3.8581,3.8581,0,0,0,2.8125-1.1377q1.1557-1.1382,1.1562-4.0352A6.901,6.901,0,0,0,78.6663,14.1484Z"/><path class="d" d="M84.19,19.2988a4.2335,4.2335,0,0,0,.4073,1.8819,2.6425,2.6425,0,0,0,1.0322,1.125,2.8236,2.8236,0,0,0,1.43.3672,3.7931,3.7931,0,0,0,1.28-.2032,5.3987,5.3987,0,0,0,1.2266-.6552l.5762.8232a5.1376,5.1376,0,0,1-3.0381,1.0449,3.9529,3.9529,0,0,1-2.1924-.5976,3.7967,3.7967,0,0,1-1.4131-1.6875,6.1611,6.1611,0,0,1-.4873-2.5332,6.0406,6.0406,0,0,1,.4922-2.502,4.006,4.006,0,0,1,1.3858-1.709,3.5179,3.5179,0,0,1,2.0459-.6162,3.2679,3.2679,0,0,1,3.1757,2.1035,6.1209,6.1209,0,0,1,.43,2.3965q0,.2037-.0263.7617Zm1.4034-3.875a2.5535,2.5535,0,0,0-.961,1.085,4.5954,4.5954,0,0,0-.4248,1.7978h5.2881a3.86,3.86,0,0,0-.7178-2.4179,2.238,2.238,0,0,0-1.8154-.8242A2.607,2.607,0,0,0,85.5931,15.4238Z"/><path class="d" d="M98.37,22.4736a1.9725,1.9725,0,0,0,.8809-.58,1.3245,1.3245,0,0,0,.3056-.8682,1.8727,1.8727,0,0,0-.1592-.8281,1.4755,1.4755,0,0,0-.6425-.5889,6.2743,6.2743,0,0,0-1.4571-.5049,11.5821,11.5821,0,0,1-1.8115-.5713,2.6163,2.6163,0,0,1-1.0674-.7929,2.0192,2.0192,0,0,1-.3808-1.2666,2.04,2.04,0,0,1,.4345-1.3018,2.7268,2.7268,0,0,1,1.2-.8418,4.8686,4.8686,0,0,1,1.74-.292,5.7437,5.7437,0,0,1,1.834.2744,5.1665,5.1665,0,0,1,1.4257.7266l-.5136.8154a4.8947,4.8947,0,0,0-1.2139-.625,4.7006,4.7006,0,0,0-1.5234-.2168,3.0309,3.0309,0,0,0-1.6963.3672,1.2591,1.2591,0,0,0-.2871,1.7627,1.9089,1.9089,0,0,0,.77.5186,12.6215,12.6215,0,0,0,1.541.4873,8.4158,8.4158,0,0,1,1.6562.6015,2.6481,2.6481,0,0,1,1.0186.8819,2.4148,2.4148,0,0,1,.3633,1.3681,2.2339,2.2339,0,0,1-.5313,1.5323,3.0347,3.0347,0,0,1-1.3867.8769,6.0481,6.0481,0,0,1-1.8643.2744A5.1283,5.1283,0,0,1,93.5247,22.47l.6826-.8066a4.233,4.233,0,0,0,1.2793.749,4.336,4.336,0,0,0,1.5283.27A3.99,3.99,0,0,0,98.37,22.4736Z"/><path class="d" d="M111.0843,15.2949a6.75,6.75,0,0,1,.7832,3.5606,7.4473,7.4473,0,0,1-.39,2.5205,3.5917,3.5917,0,0,1-1.1953,1.6963,3.2191,3.2191,0,0,1-2.0019.61,3.1654,3.1654,0,0,1-2.5332-1.1064v4.4814l-1.0987.15V14.2061h.9033l.1241,1.372a3.8088,3.8088,0,0,1,1.2363-1.1338,3.1947,3.1947,0,0,1,1.5986-.4072A2.8,2.8,0,0,1,111.0843,15.2949Zm-4.2119.1465a4.4929,4.4929,0,0,0-1.125,1.1553V21.415a2.8089,2.8089,0,0,0,1.0146.9258,2.7515,2.7515,0,0,0,1.3418.3408A2.1527,2.1527,0,0,0,110.03,21.73a5.2757,5.2757,0,0,0,.6338-2.8916q0-3.8613-2.3477-3.8613A2.4346,2.4346,0,0,0,106.8724,15.4414Z"/><path class="d" d="M118.5286,21.3975a1.1637,1.1637,0,0,0,.4385,1.01,2.001,2.001,0,0,0,1.2.3194,4.4884,4.4884,0,0,0,1.6386-.337l.3184.8506a3.9725,3.9725,0,0,1-.916.3184,5.0658,5.0658,0,0,1-1.1475.124,3.2285,3.2285,0,0,1-1.3418-.27,2.2,2.2,0,0,1-.9433-.7881,2.1609,2.1609,0,0,1-.3457-1.2275v-10h-2.8867v-.9561h3.9853Z"/><path class="d" d="M132.222,21.6729a1.4527,1.4527,0,0,0,.1865.8183,1.069,1.069,0,0,0,.6113.3945l-.3017.8057a2.0069,2.0069,0,0,1-.97-.4111,1.7056,1.7056,0,0,1-.5625-.9258,3.192,3.192,0,0,1-1.2177.9873,3.861,3.861,0,0,1-1.6524.3408,3.368,3.368,0,0,1-1.581-.35,2.4185,2.4185,0,0,1-1.0225-.9961,3.1053,3.1053,0,0,1-.3545-1.5146,2.4632,2.4632,0,0,1,1.1074-2.17,5.6926,5.6926,0,0,1,3.2061-.7529h1.4082v-.9033a1.782,1.782,0,0,0-.5977-1.5059,2.79,2.79,0,0,0-1.7314-.4609,7.1233,7.1233,0,0,0-2.3828.47l-.3194-.9033a8.9638,8.9638,0,0,1,1.4971-.43,7.4293,7.4293,0,0,1,1.3643-.1289,4.1091,4.1091,0,0,1,1.8154.3633,2.5342,2.5342,0,0,1,1.1211,1.0185,3.0434,3.0434,0,0,1,.376,1.5411Zm-2.2764.7617a3.4294,3.4294,0,0,0,1.1338-1.0371V18.74h-1.541a3.6917,3.6917,0,0,0-2.2715.55,1.88,1.88,0,0,0-.6953,1.5674,1.718,1.718,0,0,0,1.957,1.9483A2.8629,2.8629,0,0,0,129.9456,22.4346Z"/><path class="d" d="M143.2493,15.1094l-5.2959,7.3779h5.332l-.1689,1.0186h-6.5449v-.877l5.3232-7.3779h-4.9072V14.2061h6.2617Z"/><path class="d" d="M153.4788,21.6729a1.4527,1.4527,0,0,0,.1865.8183,1.0693,1.0693,0,0,0,.6113.3945l-.3017.8057a2.0065,2.0065,0,0,1-.97-.4111,1.7045,1.7045,0,0,1-.5625-.9258,3.1923,3.1923,0,0,1-1.2178.9873,3.861,3.861,0,0,1-1.6524.3408,3.3683,3.3683,0,0,1-1.581-.35,2.42,2.42,0,0,1-1.0225-.9961,3.1053,3.1053,0,0,1-.3545-1.5146,2.4633,2.4633,0,0,1,1.1075-2.17,5.692,5.692,0,0,1,3.206-.7529h1.4082v-.9033a1.7822,1.7822,0,0,0-.5976-1.5059,2.79,2.79,0,0,0-1.7315-.4609,7.1237,7.1237,0,0,0-2.3828.47l-.3193-.9033a8.9655,8.9655,0,0,1,1.497-.43,7.4309,7.4309,0,0,1,1.3643-.1289,4.1091,4.1091,0,0,1,1.8154.3633,2.5342,2.5342,0,0,1,1.1211,1.0185,3.0434,3.0434,0,0,1,.376,1.5411Zm-2.2764.7617a3.4294,3.4294,0,0,0,1.1338-1.0371V18.74h-1.541a3.6917,3.6917,0,0,0-2.2715.55,1.88,1.88,0,0,0-.6953,1.5674,1.718,1.718,0,0,0,1.957,1.9483A2.8629,2.8629,0,0,0,151.2024,22.4346Z"/><path class="d" d="M165.4632,16.57v6.9356h-1.0811V16.7832a10.602,10.602,0,0,0-.0439-1.1338.9841.9841,0,0,0-.2129-.5576.6833.6833,0,0,0-.5313-.1865,1.7149,1.7149,0,0,0-.9609.3095,3.0509,3.0509,0,0,0-.8633.9571v7.334h-1.2226V16.7832a10.596,10.596,0,0,0-.044-1.1338.9912.9912,0,0,0-.2129-.5576.6831.6831,0,0,0-.5312-.1865,2.1946,2.1946,0,0,0-1.8252,1.2666v7.334h-1.0625v-9.3h.9033l.0625,1.124a3.9507,3.9507,0,0,1,.9072-.9473,1.9046,1.9046,0,0,1,1.1387-.3457,1.685,1.685,0,0,1,1.7715,1.2666,3.2449,3.2449,0,0,1,.872-.9433,2.0407,2.0407,0,0,1,1.1739-.3233Q165.4627,14.0371,165.4632,16.57Z"/><path class="d" d="M168.8909,14.2061h3.95v8.3427h2.7022v.9571H168.802v-.9571h2.9414V15.1621h-2.8525Zm3.583-3.9551a.8473.8473,0,0,1,.252.624.8726.8726,0,0,1-.9209.9121.8556.8556,0,0,1-.6465-.2568.9052.9052,0,0,1-.2481-.6553.8473.8473,0,0,1,.252-.624.87.87,0,0,1,.6426-.253A.9018.9018,0,0,1,172.4739,10.251Z"/><path class="d" d="M179.8479,19.2988a4.2335,4.2335,0,0,0,.4073,1.8819,2.6425,2.6425,0,0,0,1.0322,1.125,2.8236,2.8236,0,0,0,1.43.3672,3.7941,3.7941,0,0,0,1.28-.2032,5.4,5.4,0,0,0,1.2265-.6552l.5762.8232a5.1376,5.1376,0,0,1-3.0381,1.0449,3.9529,3.9529,0,0,1-2.1924-.5976,3.7967,3.7967,0,0,1-1.4131-1.6875,6.1611,6.1611,0,0,1-.4873-2.5332,6.0406,6.0406,0,0,1,.4922-2.502,4.006,4.006,0,0,1,1.3858-1.709,3.5179,3.5179,0,0,1,2.0459-.6162,3.2679,3.2679,0,0,1,3.1757,2.1035,6.1209,6.1209,0,0,1,.43,2.3965q0,.2037-.0263.7617Zm1.4034-3.875a2.5535,2.5535,0,0,0-.961,1.085,4.5954,4.5954,0,0,0-.4248,1.7978h5.2881a3.86,3.86,0,0,0-.7178-2.4179,2.2379,2.2379,0,0,0-1.8154-.8242A2.6072,2.6072,0,0,0,181.2513,15.4238Z"/><path class="d" d="M189.678,23.5059v-9.3H190.6l.0879,1.3544a3.48,3.48,0,0,1,.8857-.8144,4.4441,4.4441,0,0,1,1.1211-.5273,3.8,3.8,0,0,1,1.12-.1817,2.58,2.58,0,0,1,2.0108.7,2.9531,2.9531,0,0,1,.6289,2.0371v6.7315h-1.0986V17.9521a10.0757,10.0757,0,0,0-.1192-1.7841,1.4646,1.4646,0,0,0-.5049-.917,1.9069,1.9069,0,0,0-1.1826-.3018,2.627,2.627,0,0,0-1.13.2569,3.756,3.756,0,0,0-.9609.6474,4.37,4.37,0,0,0-.6817.7969v6.8555Z"/><path class="d" d="M207.4016,23.0635a3.5518,3.5518,0,0,1-1.0937.456,5.1014,5.1014,0,0,1-1.2354.1631,3.5413,3.5413,0,0,1-1.59-.3359,2.4427,2.4427,0,0,1-1.0361-.9307,2.5473,2.5473,0,0,1-.3594-1.3457V15.127h-2.1963v-.9209h2.1963V12.0625l1.0986-.1328v2.2764h3.2774l-.15.9209h-3.127v5.9169a1.642,1.642,0,0,0,.4522,1.2569,2.0826,2.0826,0,0,0,1.4609.4258,3.8616,3.8616,0,0,0,1.8252-.4522Z"/><path class="d" d="M216.4456,14.6221a3.4962,3.4962,0,0,1,1.2842,1.665,7.0114,7.0114,0,0,1,.4248,2.5684,6.6382,6.6382,0,0,1-.4385,2.4931,3.7738,3.7738,0,0,1-1.3057,1.7149,3.521,3.521,0,0,1-2.1.6191,3.4468,3.4468,0,0,1-3.41-2.2763,6.7738,6.7738,0,0,1-.4336-2.5333,6.7428,6.7428,0,0,1,.4385-2.5332,3.6775,3.6775,0,0,1,1.3105-1.6962,3.6237,3.6237,0,0,1,2.1211-.6065A3.6613,3.6613,0,0,1,216.4456,14.6221Zm-4.7744,4.2509q0,3.8365,2.64,3.836t2.64-3.8535q0-3.8526-2.6133-3.8526Q211.6713,15.0029,211.6712,18.873Z"/></g><rect class="e" x="164.1693" y="56.9707" width="94.4377" height="44.8938" rx="4.1677"/><polyline class="f" points="198.467 88.065 189.738 79.336 198.467 70.607"/><polyline class="f" points="224.309 70.607 233.038 79.336 224.309 88.065"/></svg>