<svg xmlns="http://www.w3.org/2000/svg" viewBox="0 0 84.6102 88.4453"><defs><style>.a{fill:#f9e9e1;}.b{fill:none;stroke:#f9e9e1;stroke-miterlimit:10;}</style></defs><title>reportType-signal</title><path class="a" d="M23.7152,86.8926a1.1681,1.1681,0,0,0,.5948-1.0293,1.4884,1.4884,0,0,0-.1553-.7217,1.4117,1.4117,0,0,0-.6162-.5186,6.709,6.709,0,0,0-1.38-.4638,9.4565,9.4565,0,0,1-1.666-.5528,2.5576,2.5576,0,0,1-1.0039-.7812,1.987,1.987,0,0,1-.3594-1.2227,2.0467,2.0467,0,0,1,.4219-1.2832,2.6711,2.6711,0,0,1,1.1855-.8437,4.9,4.9,0,0,1,1.7686-.2949,5.7722,5.7722,0,0,1,1.81.2656,5.0345,5.0345,0,0,1,1.413.7129l-.624.9619a4.804,4.804,0,0,0-1.1689-.5859,4.4161,4.4161,0,0,0-1.4131-.2071,2.6966,2.6966,0,0,0-1.4639.3076,1.0522,1.0522,0,0,0-.2451,1.5069,1.8126,1.8126,0,0,0,.7.4512,13.5371,13.5371,0,0,0,1.4473.46,7.9974,7.9974,0,0,1,1.5781.582,2.5373,2.5373,0,0,1,.9619.84,2.334,2.334,0,0,1,.3457,1.32,2.1849,2.1849,0,0,1-.5234,1.4971,3.0464,3.0464,0,0,1-1.3711.874,5.91,5.91,0,0,1-1.8516.2783,5.1214,5.1214,0,0,1-3.4766-1.1982l.8106-.9366a4.0743,4.0743,0,0,0,1.2226.709,4.1406,4.1406,0,0,0,1.4434.253A2.979,2.979,0,0,0,23.7152,86.8926Z"/><path class="a" d="M30.3178,84.3105a3.76,3.76,0,0,0,.3887,1.6583,2.329,2.329,0,0,0,.9277.9785,2.6107,2.6107,0,0,0,1.2822.3164,3.6159,3.6159,0,0,0,1.211-.1944,5.0441,5.0441,0,0,0,1.16-.6074l.667.9365A5.0827,5.0827,0,0,1,32.9,88.4453a4.0542,4.0542,0,0,1-2.1933-.5742,3.6205,3.6205,0,0,1-1.3965-1.62,5.7961,5.7961,0,0,1-.4776-2.43,5.72,5.72,0,0,1,.4815-2.3965,3.8848,3.8848,0,0,1,1.3584-1.6494,3.5516,3.5516,0,0,1,2.042-.5947,3.4905,3.4905,0,0,1,1.9277.5234A3.3378,3.3378,0,0,1,35.891,81.21a5.7216,5.7216,0,0,1,.4346,2.3242q0,.3882-.0342.7763Zm.7383-3.2441a3.4451,3.4451,0,0,0-.73,2.1475h4.6318a3.4375,3.4375,0,0,0-.6162-2.1348,1.9571,1.9571,0,0,0-1.6113-.7344A2.1443,2.1443,0,0,0,31.0561,81.0664Z"/><path class="a" d="M39.33,88.251V79.3662h1.2061l.1093,1.2315a3.679,3.679,0,0,1,1.3379-1.042,3.7653,3.7653,0,0,1,1.5987-.375,2.42,2.42,0,0,1,1.8857.6748,2.7913,2.7913,0,0,1,.6123,1.94V88.251h-1.418V82.8428a8.2211,8.2211,0,0,0-.1054-1.5186,1.2534,1.2534,0,0,0-.43-.7763,1.5866,1.5866,0,0,0-.9834-.254,2.3347,2.3347,0,0,0-1.3545.4434,3.9885,3.9885,0,0,0-1.042,1.042V88.251Zm3.7793-11.2305a4.8944,4.8944,0,0,1-.5986-.3457,3.3459,3.3459,0,0,0-.4346-.27.8169.8169,0,0,0-.3584-.084.67.67,0,0,0-.4727.1895,2.404,2.404,0,0,0-.4218.5947l-.9034-.4551a3.1764,3.1764,0,0,1,.7725-1.0332,1.546,1.546,0,0,1,1.0332-.3848,1.4256,1.4256,0,0,1,.5957.1182,3.6956,3.6956,0,0,1,.5772.3467,4.171,4.171,0,0,0,.4306.2656.7756.7756,0,0,0,.3545.08.6794.6794,0,0,0,.4512-.1777,2.4019,2.4019,0,0,0,.4433-.5645l.8946.4551a2.6931,2.6931,0,0,1-.7764,1.0381,1.6365,1.6365,0,0,1-1.0127.3457A1.3382,1.3382,0,0,1,43.1088,77.0205Z"/><path class="a" d="M55.8149,86.3105a1.3943,1.3943,0,0,0,.1689.7715.9848.9848,0,0,0,.5566.3672l-.3457.9961a1.7876,1.7876,0,0,1-1.6279-1.249,3,3,0,0,1-1.1943.9326,3.9225,3.9225,0,0,1-1.5909.3164,3.2769,3.2769,0,0,1-1.5273-.3379,2.35,2.35,0,0,1-.9951-.958,2.9205,2.9205,0,0,1-.3457-1.4463,2.4,2.4,0,0,1,1.0713-2.1093,5.4619,5.4619,0,0,1,3.0967-.7344h1.3076v-.7422a1.5934,1.5934,0,0,0-.54-1.3457,2.5377,2.5377,0,0,0-1.5781-.418,7.1515,7.1515,0,0,0-2.3115.4551l-.3711-1.0713a8.2371,8.2371,0,0,1,2.9023-.5566,3.5873,3.5873,0,0,1,2.4766.7636,2.6885,2.6885,0,0,1,.8477,2.1055Zm-2.417.7217a2.8812,2.8812,0,0,0,.9912-.9248V83.8213H53.1068a3.4113,3.4113,0,0,0-2.0419.4805,1.6344,1.6344,0,0,0-.6329,1.3837,1.4991,1.4991,0,0,0,1.7129,1.68A2.5316,2.5316,0,0,0,53.3979,87.0322Z"/><path class="a" d="M63.0375,86.0576a1.0644,1.0644,0,0,0,.3926.9151,1.768,1.768,0,0,0,1.0752.291,3.9818,3.9818,0,0,0,1.4941-.3125l.38,1.0381a4.3345,4.3345,0,0,1-.9453.3291,5.0673,5.0673,0,0,1-1.1641.1269,3.1152,3.1152,0,0,1-1.3886-.2959,2.1477,2.1477,0,0,1-.9317-.8515,2.5386,2.5386,0,0,1-.3291-1.3165v-9.07H58.8949v-1.122h4.1426Z"/><path class="b" d="M0,34.8765H11.4623a.26.26,0,0,0,.2559-.1462l6.6044-20.671L24.831,43.3475l4.7219-13.9029,1.8822,7.4684h0l5.1764-11.9424L43.2,41.9118l5.6471-10.353,5.2722,8.5344,9.7627-18.4407,7.9774,14.4344a.2592.2592,0,0,0,.2564.1476H84.61"/><path class="b" d="M52.2414,42.4827a14.1175,14.1175,0,0,1-19.9653,0"/><path class="b" d="M32.2761,22.5173a14.1175,14.1175,0,0,1,19.9653,0"/><path class="b" d="M57.5655,47.8068a21.647,21.647,0,0,1-30.6135,0"/><path class="b" d="M26.952,17.1932a21.647,21.647,0,0,1,30.6135,0"/><path class="b" d="M19.6313,9.8726a32,32,0,0,1,45.2549,0"/><path class="b" d="M64.8862,55.1274a32,32,0,0,1-45.2549,0"/></svg>