<svg xmlns="http://www.w3.org/2000/svg" viewBox="0 0 79.8258 105.9381"><defs><style>.a{fill:#f9e9e1;}.b{fill:none;stroke:#f9e9e1;stroke-miterlimit:10;}</style></defs><title>reportType-image</title><path class="a" d="M11.6566,93.4762h4.0752v7.7627h2.5059v1.1221h-6.666v-1.1221h2.7422V94.5983H11.6566Zm3.6954-3.8769a.9476.9476,0,0,1,.2871.7041.9812.9812,0,0,1-.2871.7256,1.0151,1.0151,0,0,1-.751.2871.9868.9868,0,0,1-1.0205-1.0127.9467.9467,0,0,1,.2861-.7041,1.0035,1.0035,0,0,1,.7344-.2832A1.024,1.024,0,0,1,15.352,89.5993Z"/><path class="a" d="M28.4555,93.818a2.9058,2.9058,0,0,1,.48,1.9278v6.6152H27.6205V95.9733a7.7268,7.7268,0,0,0-.043-.9492.8482.8482,0,0,0-.1855-.4717.5891.5891,0,0,0-.4551-.1562,1.9035,1.9035,0,0,0-1.5527,1.0625v6.9023H24.059V95.9733a7.7916,7.7916,0,0,0-.042-.9492.8482.8482,0,0,0-.1855-.4717.5893.5893,0,0,0-.4551-.1562,1.9025,1.9025,0,0,0-1.5528,1.0625v6.9023H20.516V93.4762h1.1133l.085,1.0293a3.5229,3.5229,0,0,1,.86-.8984,1.8317,1.8317,0,0,1,1.0713-.3164,1.527,1.527,0,0,1,1.6113,1.1728,3.1621,3.1621,0,0,1,.8565-.873,1.97,1.97,0,0,1,1.1015-.3A1.6024,1.6024,0,0,1,28.4555,93.818Z"/><path class="a" d="M37.8461,100.4206a1.3941,1.3941,0,0,0,.1689.7714.9849.9849,0,0,0,.5567.3672l-.3457.9961a1.7874,1.7874,0,0,1-1.6279-1.249,3,3,0,0,1-1.1944.9326,3.92,3.92,0,0,1-1.5908.3164,3.2763,3.2763,0,0,1-1.5273-.3379,2.35,2.35,0,0,1-.9952-.958,2.9216,2.9216,0,0,1-.3457-1.4463,2.4,2.4,0,0,1,1.0713-2.1093,5.4622,5.4622,0,0,1,3.0967-.7344H36.42v-.7422a1.5937,1.5937,0,0,0-.54-1.3457,2.5381,2.5381,0,0,0-1.5781-.418,7.1516,7.1516,0,0,0-2.3116.4551L31.62,93.8473a8.238,8.238,0,0,1,2.9024-.5566,3.5872,3.5872,0,0,1,2.4765.7637,2.6878,2.6878,0,0,1,.8477,2.1054Zm-2.417.7216a2.88,2.88,0,0,0,.9912-.9248V97.9313H35.1381a3.4124,3.4124,0,0,0-2.042.4805,1.6345,1.6345,0,0,0-.6328,1.3838,1.4991,1.4991,0,0,0,1.7129,1.68A2.5314,2.5314,0,0,0,35.4291,101.1422Z"/><path class="a" d="M49.27,93.8639a5.29,5.29,0,0,1-1.1181.211q-.5948.0511-1.48.0507a2.3419,2.3419,0,0,1,1.5439,2.2364,3.0493,3.0493,0,0,1-.4013,1.5654,2.7362,2.7362,0,0,1-1.1553,1.0713,3.8968,3.8968,0,0,1-1.7852.3838,6.0073,6.0073,0,0,1-.7382-.0381,3.1755,3.1755,0,0,1-.586-.1309,1.13,1.13,0,0,0-.333.376.9662.9662,0,0,0-.1308.4854.6381.6381,0,0,0,.27.5439,1.6053,1.6053,0,0,0,.92.1982h1.6035a3.9384,3.9384,0,0,1,1.5987.3165,2.7464,2.7464,0,0,1,1.1308.8691,2.0152,2.0152,0,0,1,.4092,1.2275,2.2408,2.2408,0,0,1-1.1055,2.0078,5.8743,5.8743,0,0,1-3.1386.7,6.9832,6.9832,0,0,1-2.2237-.2861,2.12,2.12,0,0,1-1.1767-.874,2.8924,2.8924,0,0,1-.3545-1.5147H42.3a1.6147,1.6147,0,0,0,.207.8741,1.2692,1.2692,0,0,0,.7422.4853,5.565,5.565,0,0,0,1.5147.16,4.7546,4.7546,0,0,0,2.1347-.3633,1.1719,1.1719,0,0,0,.6836-1.0967,1.04,1.04,0,0,0-.5566-.9453,2.8391,2.8391,0,0,0-1.4522-.3291H43.9877a3.01,3.01,0,0,1-1.24-.2275,1.6767,1.6767,0,0,1-.751-.6075,1.5087,1.5087,0,0,1-.2441-.8349,1.5567,1.5567,0,0,1,.2529-.836,2.3854,2.3854,0,0,1,.7256-.7168A2.8108,2.8108,0,0,1,41.6,97.8219a2.75,2.75,0,0,1-.3633-1.4511,2.8876,2.8876,0,0,1,.4522-1.5909,3.06,3.06,0,0,1,1.2568-1.1015,4.11,4.11,0,0,1,1.835-.3965,14.6787,14.6787,0,0,0,1.7724-.0879,6.7247,6.7247,0,0,0,1.1768-.2412,11.7755,11.7755,0,0,0,1.1016-.4219Zm-6.0537,1.0127a2.071,2.071,0,0,0,1.5987,3.5606,1.8454,1.8454,0,0,0,1.43-.544,2.1721,2.1721,0,0,0,.502-1.5312,2.1244,2.1244,0,0,0-.4971-1.5235,1.9438,1.9438,0,0,0-1.4687-.5185A2.0542,2.0542,0,0,0,43.2162,94.8766Z"/><path class="a" d="M52.8471,98.4206a3.7611,3.7611,0,0,0,.3886,1.6582,2.33,2.33,0,0,0,.9278.9785,2.6107,2.6107,0,0,0,1.2822.3164,3.6174,3.6174,0,0,0,1.2109-.1943,5.0472,5.0472,0,0,0,1.16-.6075l.667.9366a5.0834,5.0834,0,0,1-3.0547,1.0468,4.0548,4.0548,0,0,1-2.1934-.5742,3.62,3.62,0,0,1-1.3964-1.62,5.7958,5.7958,0,0,1-.4776-2.43,5.72,5.72,0,0,1,.4815-2.3965,3.8848,3.8848,0,0,1,1.3584-1.6494,3.5516,3.5516,0,0,1,2.042-.5947,3.4908,3.4908,0,0,1,1.9277.5234A3.3383,3.3383,0,0,1,58.42,95.32a5.7223,5.7223,0,0,1,.4346,2.3242q0,.3882-.0342.7764Zm.7383-3.2442a3.4451,3.4451,0,0,0-.73,2.1475h4.6318a3.4375,3.4375,0,0,0-.6162-2.1348,1.9574,1.9574,0,0,0-1.6113-.7344A2.1446,2.1446,0,0,0,53.5854,95.1764Z"/><path class="a" d="M61.8588,102.361V93.4762h1.2061l.1093,1.2315a3.68,3.68,0,0,1,1.3379-1.042,3.7652,3.7652,0,0,1,1.5986-.375,2.42,2.42,0,0,1,1.8858.6748,2.7915,2.7915,0,0,1,.6123,1.94v6.4551h-1.418V96.9528a8.2211,8.2211,0,0,0-.1054-1.5186,1.2534,1.2534,0,0,0-.43-.7763,1.5868,1.5868,0,0,0-.9834-.2539,2.3346,2.3346,0,0,0-1.3545.4433,3.9885,3.9885,0,0,0-1.042,1.042v6.4717Z"/><path class="b" d="M.5.5H79.3258a0,0,0,0,1,0,0V70.9845a8.3414,8.3414,0,0,1-8.3414,8.3414H.5a0,0,0,0,1,0,0V.5A0,0,0,0,1,.5.5Z"/><line class="b" x1="63.9047" y1="56.0491" x2="63.9047" y2="70.6501"/><line class="b" x1="71.2052" y1="63.3496" x2="56.6042" y2="63.3496"/><rect class="a" x="51.6158" y="8.79" width="19.1972" height="19.1972" rx="5.7072" transform="translate(79.603 -42.8258) rotate(90)"/><line class="b" x1="9.3725" y1="49.8095" x2="72.3818" y2="49.8095"/><polygon class="b" points="19.982 49.473 24 30.276 35.596 30.276 39.18 49.473 19.982 49.473"/><polygon class="a" points="39.179 49.848 23.868 57.584 12.272 57.584 19.982 49.848 39.179 49.848"/></svg>