<svg xmlns="http://www.w3.org/2000/svg" viewBox="0 0 66.7151 103.2225"><defs><style>.a{fill:none;stroke:#f9e9e1;stroke-miterlimit:10;}.b{fill:#f9e9e1;}</style></defs><title>reportType-text</title><path class="a" d="M21.34,8.2917H66.2151V64.7961A15.1972,15.1972,0,0,1,51.018,79.9933H8.4047V70.4666"/><polyline class="a" points="8.405 33.8 8.405 8.292 15.728 8.292"/><polyline class="a" points="49.89 47.233 0.5 47.233 0.5 41.641 55.128 41.641"/><path class="a" d="M24.6019,16.9628V13.8355a2.1109,2.1109,0,0,1,2.1109-2.1109h0a2.1109,2.1109,0,0,1,2.1109,2.1109v5.808a5.1254,5.1254,0,0,1-5.1253,5.1254h0a5.1254,5.1254,0,0,1-5.1254-5.1254V5.6254A5.1254,5.1254,0,0,1,23.6984.5h0a5.1254,5.1254,0,0,1,5.1253,5.1254v.1128"/><polyline class="a" points="35.402 62.392 0.5 62.392 0.5 56.8 40.64 56.8"/><path class="b" d="M16.7956,102.5809a3.7055,3.7055,0,0,1-1.1016.4688,4.991,4.991,0,0,1-1.2783.1728,3.5079,3.5079,0,0,1-1.6074-.3418,2.419,2.419,0,0,1-1.0244-.9492,2.7116,2.7116,0,0,1-.3545-1.3926V95.24H9.3874V94.1434h2.042V92.1268l1.417-.1689v2.1855h3.0712L15.7487,95.24H12.8464v5.2822a1.4957,1.4957,0,0,0,.4013,1.1387,1.8357,1.8357,0,0,0,1.2949.38,3.6056,3.6056,0,0,0,1.7041-.4219Z"/><path class="b" d="M20.98,99.0878a3.7625,3.7625,0,0,0,.3887,1.6582,2.3292,2.3292,0,0,0,.9278.9785,2.61,2.61,0,0,0,1.2822.3164,3.6178,3.6178,0,0,0,1.2109-.1943,5.0472,5.0472,0,0,0,1.16-.6075l.667.9366a5.0834,5.0834,0,0,1-3.0547,1.0468,4.0545,4.0545,0,0,1-2.1934-.5742,3.6205,3.6205,0,0,1-1.3965-1.62,5.7973,5.7973,0,0,1-.4775-2.43,5.72,5.72,0,0,1,.4814-2.3965,3.8862,3.8862,0,0,1,1.3584-1.6494,3.552,3.552,0,0,1,2.042-.5947,3.4909,3.4909,0,0,1,1.9278.5234,3.34,3.34,0,0,1,1.249,1.5059,5.7239,5.7239,0,0,1,.4346,2.3242q0,.3882-.0342.7764Zm.7383-3.2442a3.4464,3.4464,0,0,0-.7295,2.1475h4.6319a3.4375,3.4375,0,0,0-.6162-2.1348,1.9575,1.9575,0,0,0-1.6114-.7344A2.1449,2.1449,0,0,0,21.7184,95.8436Z"/><path class="b" d="M33.3161,99.2147l-2.4639,3.8135h-1.62l3.2822-4.6914-2.8769-4.1934h1.6787l2.0586,3.3076,2.084-3.3076h1.62l-2.8682,4.1348,3.2735,4.75H35.7458Z"/><path class="b" d="M47.17,102.5809a3.7033,3.7033,0,0,1-1.1016.4688,4.991,4.991,0,0,1-1.2783.1728,3.5082,3.5082,0,0,1-1.6074-.3418,2.419,2.419,0,0,1-1.0244-.9492,2.7125,2.7125,0,0,1-.3545-1.3926V95.24h-2.042V94.1434h2.042V92.1268l1.417-.1689v2.1855h3.0713l-.169,1.0967H43.22v5.2822a1.4961,1.4961,0,0,0,.4013,1.1387,1.8358,1.8358,0,0,0,1.295.38,3.6061,3.6061,0,0,0,1.7041-.4219Z"/><path class="b" d="M55.7077,94.5194a3.4484,3.4484,0,0,1,1.2871,1.6025,6.362,6.362,0,0,1,.4346,2.46,6.154,6.154,0,0,1-.4434,2.4209,3.4722,3.4722,0,0,1-3.3789,2.22,3.69,3.69,0,0,1-2.0879-.5693,3.523,3.523,0,0,1-1.2959-1.6074,6.2667,6.2667,0,0,1-.4385-2.4473,6.1788,6.1788,0,0,1,.4434-2.43A3.59,3.59,0,0,1,51.5358,94.54a3.6534,3.6534,0,0,1,2.0879-.582A3.7059,3.7059,0,0,1,55.7077,94.5194Zm-3.8223,1.4512a6.2044,6.2044,0,0,0-.0078,5.23,2.1744,2.1744,0,0,0,3.459,0,6.2426,6.2426,0,0,0,0-5.23,1.9248,1.9248,0,0,0-1.7129-.8565A1.9633,1.9633,0,0,0,51.8854,95.9706Z"/></svg>