<svg xmlns="http://www.w3.org/2000/svg" viewBox="0 0 79 102.7295"><defs><style>.a{fill:#f9e9e1;}.b{fill:none;stroke:#f9e9e1;stroke-miterlimit:10;}</style></defs><title>reportType-signal</title><path class="a" d="M20.41,101.1768a1.1682,1.1682,0,0,0,.5947-1.0293,1.4884,1.4884,0,0,0-.1553-.7217,1.411,1.411,0,0,0-.6162-.5186,6.7069,6.7069,0,0,0-1.38-.4638,9.4676,9.4676,0,0,1-1.666-.5528,2.5585,2.5585,0,0,1-1.0039-.7812,1.9872,1.9872,0,0,1-.3594-1.2227,2.0467,2.0467,0,0,1,.4219-1.2832,2.6709,2.6709,0,0,1,1.1855-.8437,4.9,4.9,0,0,1,1.7686-.295,5.7717,5.7717,0,0,1,1.81.2657,5.0365,5.0365,0,0,1,1.4131.7129l-.6241.9619a4.799,4.799,0,0,0-1.1689-.586,4.4162,4.4162,0,0,0-1.4131-.207,2.6957,2.6957,0,0,0-1.4639.3076,1.0522,1.0522,0,0,0-.2451,1.5069,1.8114,1.8114,0,0,0,.7.4511,13.5173,13.5173,0,0,0,1.4473.46,7.991,7.991,0,0,1,1.5781.582,2.5365,2.5365,0,0,1,.9619.84,2.334,2.334,0,0,1,.3457,1.32,2.1846,2.1846,0,0,1-.5234,1.497,3.0466,3.0466,0,0,1-1.3711.8741,5.9093,5.9093,0,0,1-1.8516.2783,5.1206,5.1206,0,0,1-3.4765-1.1983l.8105-.9365a4.0757,4.0757,0,0,0,1.2227.709,4.14,4.14,0,0,0,1.4433.2529A2.98,2.98,0,0,0,20.41,101.1768Z"/><path class="a" d="M27.0127,98.5947a3.7607,3.7607,0,0,0,.3887,1.6582,2.3284,2.3284,0,0,0,.9277.9785,2.61,2.61,0,0,0,1.2822.3164,3.6159,3.6159,0,0,0,1.211-.1943,5.0441,5.0441,0,0,0,1.16-.6074l.667.9365a5.0821,5.0821,0,0,1-3.0547,1.0469,4.0542,4.0542,0,0,1-2.1933-.5742,3.621,3.621,0,0,1-1.3965-1.62,5.7961,5.7961,0,0,1-.4776-2.43,5.72,5.72,0,0,1,.4815-2.3965A3.8842,3.8842,0,0,1,27.3672,94.06a3.5517,3.5517,0,0,1,2.042-.5948,3.49,3.49,0,0,1,1.9277.5235,3.338,3.338,0,0,1,1.249,1.5058,5.7224,5.7224,0,0,1,.4346,2.3243q0,.3881-.0342.7763Zm.7383-3.2441a3.4446,3.4446,0,0,0-.73,2.1474h4.6318a3.4369,3.4369,0,0,0-.6162-2.1347,1.957,1.957,0,0,0-1.6113-.7344A2.1444,2.1444,0,0,0,27.751,95.3506Z"/><path class="a" d="M36.0244,102.5352V93.65h1.2061l.1093,1.2314a3.6812,3.6812,0,0,1,1.3379-1.042,3.7653,3.7653,0,0,1,1.5987-.375,2.42,2.42,0,0,1,1.8857.6748,2.7916,2.7916,0,0,1,.6123,1.9405v6.4551h-1.418V97.1269a8.22,8.22,0,0,0-.1054-1.5185,1.2535,1.2535,0,0,0-.43-.7764,1.5873,1.5873,0,0,0-.9834-.2539,2.3347,2.3347,0,0,0-1.3545.4434,3.9885,3.9885,0,0,0-1.042,1.042v6.4717Zm3.7793-11.2305a4.9075,4.9075,0,0,1-.5986-.3457,3.3459,3.3459,0,0,0-.4346-.27.8165.8165,0,0,0-.3584-.084.67.67,0,0,0-.4726.1894,2.4048,2.4048,0,0,0-.4219.5948l-.9033-.4551A3.1737,3.1737,0,0,1,37.3867,89.9a1.5455,1.5455,0,0,1,1.0332-.3848,1.4252,1.4252,0,0,1,.5957.1182,3.6956,3.6956,0,0,1,.5772.3467,4.171,4.171,0,0,0,.4306.2656.7756.7756,0,0,0,.3545.08.679.679,0,0,0,.4512-.1778,2.3988,2.3988,0,0,0,.4434-.5644l.8945.4551a2.692,2.692,0,0,1-.7764,1.038,1.6358,1.6358,0,0,1-1.0127.3457A1.3388,1.3388,0,0,1,39.8037,91.3047Z"/><path class="a" d="M52.51,100.5947a1.3943,1.3943,0,0,0,.1689.7715.985.985,0,0,0,.5567.3672l-.3458.9961a1.7876,1.7876,0,0,1-1.6279-1.249,3,3,0,0,1-1.1943.9326,3.922,3.922,0,0,1-1.5908.3164,3.2771,3.2771,0,0,1-1.5274-.3379,2.35,2.35,0,0,1-.9951-.958,2.9205,2.9205,0,0,1-.3457-1.4463A2.4,2.4,0,0,1,46.68,97.8779a5.463,5.463,0,0,1,3.0967-.7344H51.084v-.7421a1.5934,1.5934,0,0,0-.54-1.3457,2.5377,2.5377,0,0,0-1.5781-.418,7.1515,7.1515,0,0,0-2.3115.4551l-.3711-1.0713a8.2373,8.2373,0,0,1,2.9023-.5567,3.5873,3.5873,0,0,1,2.4766.7637A2.6884,2.6884,0,0,1,52.51,96.334Zm-2.417.7217a2.8823,2.8823,0,0,0,.9912-.9248V98.1055H49.8018a3.4123,3.4123,0,0,0-2.042.48A1.6346,1.6346,0,0,0,47.127,99.97a1.4991,1.4991,0,0,0,1.7128,1.68A2.5316,2.5316,0,0,0,50.0928,101.3164Z"/><path class="a" d="M59.7324,100.3418a1.0641,1.0641,0,0,0,.3926.915,1.7673,1.7673,0,0,0,1.0752.291,3.9814,3.9814,0,0,0,1.4941-.3125l.38,1.0381a4.3293,4.3293,0,0,1-.9453.3291,5.06,5.06,0,0,1-1.1641.127,3.1152,3.1152,0,0,1-1.3886-.2959,2.1473,2.1473,0,0,1-.9317-.8516,2.5382,2.5382,0,0,1-.3291-1.3164v-9.07H55.59V90.0732h4.1426Z"/><path class="b" d="M0,45.3661H8.1572a.2636.2636,0,0,0,.2559-.2052l6.6044-29.0074,6.5085,41.1,4.7218-19.51,1.8822,10.48h0l5.1763-16.7586,6.5882,23.7733L45.5419,40.71l5.2722,11.9762L60.5768,26.809l7.9774,20.2556a.2636.2636,0,0,0,.2564.2071H79"/><path class="b" d="M49.4827,60.4827a14.1177,14.1177,0,0,1-19.9654,0"/><path class="b" d="M29.5173,19.5173a14.1177,14.1177,0,0,1,19.9654,0"/><path class="b" d="M54.8068,64.8068a21.6471,21.6471,0,0,1-30.6136,0"/><path class="b" d="M24.1932,15.1932a21.6471,21.6471,0,0,1,30.6136,0"/><path class="b" d="M16.8726,9.8726a32,32,0,0,1,45.2548,0"/><path class="b" d="M62.1274,70.1274a32,32,0,0,1-45.2548,0"/></svg>