<svg xmlns="http://www.w3.org/2000/svg" viewBox="0 0 88.542 102.6938"><defs><style>.a{fill:#f9e9e1;}.b{fill:none;stroke:#f9e9e1;stroke-miterlimit:10;}</style></defs><title>reportType-sequence</title><path class="a" d="M6.332,101.1411a1.1681,1.1681,0,0,0,.5948-1.0293,1.4884,1.4884,0,0,0-.1553-.7217,1.4117,1.4117,0,0,0-.6162-.5186,6.709,6.709,0,0,0-1.38-.4638,9.4565,9.4565,0,0,1-1.666-.5528,2.5585,2.5585,0,0,1-1.0039-.7812,1.9872,1.9872,0,0,1-.3594-1.2227,2.0467,2.0467,0,0,1,.4219-1.2832,2.67,2.67,0,0,1,1.1855-.8437,4.9,4.9,0,0,1,1.7686-.2949,5.7711,5.7711,0,0,1,1.81.2656,5.0338,5.0338,0,0,1,1.4131.7129l-.624.9619a4.8044,4.8044,0,0,0-1.1689-.586,4.419,4.419,0,0,0-1.4131-.207,2.6964,2.6964,0,0,0-1.4639.3076A1.052,1.052,0,0,0,3.43,96.3911a1.81,1.81,0,0,0,.7.4511,13.5065,13.5065,0,0,0,1.4472.46,7.9986,7.9986,0,0,1,1.5782.582,2.538,2.538,0,0,1,.9619.84,2.334,2.334,0,0,1,.3457,1.32,2.1849,2.1849,0,0,1-.5234,1.4971,3.0473,3.0473,0,0,1-1.3711.874,5.91,5.91,0,0,1-1.8516.2783A5.1214,5.1214,0,0,1,1.24,101.4956l.8106-.9366a4.0743,4.0743,0,0,0,1.2226.709,4.1406,4.1406,0,0,0,1.4434.253A2.9792,2.9792,0,0,0,6.332,101.1411Z" transform="translate(-1.2402)"/><path class="a" d="M12.9346,98.559a3.7608,3.7608,0,0,0,.3886,1.6582,2.33,2.33,0,0,0,.9278.9786,2.61,2.61,0,0,0,1.2822.3164,3.6149,3.6149,0,0,0,1.2109-.1944,5.0426,5.0426,0,0,0,1.16-.6074l.667.9365a5.0827,5.0827,0,0,1-3.0547,1.0469,4.0545,4.0545,0,0,1-2.1934-.5742,3.62,3.62,0,0,1-1.3964-1.62,5.7961,5.7961,0,0,1-.4776-2.43,5.72,5.72,0,0,1,.4815-2.3965,3.8848,3.8848,0,0,1,1.3584-1.6494,3.5516,3.5516,0,0,1,2.042-.5947,3.4908,3.4908,0,0,1,1.9277.5234,3.3378,3.3378,0,0,1,1.249,1.5059,5.7216,5.7216,0,0,1,.4346,2.3242q0,.3882-.0342.7763Zm.7383-3.2441a3.4451,3.4451,0,0,0-.7295,2.1475h4.6318a3.4375,3.4375,0,0,0-.6162-2.1348,1.9571,1.9571,0,0,0-1.6113-.7344A2.1443,2.1443,0,0,0,13.6729,95.3149Z" transform="translate(-1.2402)"/><path class="a" d="M28.2744,100.6938l.6914.9277a4.4693,4.4693,0,0,1-1.4.7813,4.7865,4.7865,0,0,1-1.6035.291,4.2818,4.2818,0,0,1-2.248-.5654,3.619,3.619,0,0,1-1.4307-1.6035,5.6428,5.6428,0,0,1-.4893-2.43,5.5741,5.5741,0,0,1,.4981-2.4,3.8855,3.8855,0,0,1,1.4424-1.6621,4.0822,4.0822,0,0,1,2.2451-.6035,4.5851,4.5851,0,0,1,2.97,1.0293l-.6924.9453a4.0089,4.0089,0,0,0-2.2949-.793,2.4465,2.4465,0,0,0-1.375.3877,2.5372,2.5372,0,0,0-.9238,1.1728,4.9143,4.9143,0,0,0-.333,1.9239,3.84,3.84,0,0,0,.7129,2.54,2.3933,2.3933,0,0,0,1.9189.835A4.0171,4.0171,0,0,0,28.2744,100.6938Z" transform="translate(-1.2402)"/><path class="a" d="M33.4873,99.91a1.8345,1.8345,0,0,0,.3584,1.2608,1.4682,1.4682,0,0,0,1.1348.3925,2.5758,2.5758,0,0,0,1.3633-.4052,3.1518,3.1518,0,0,0,1.0419-1.0039V93.6147h1.417V102.5h-1.206l-.1182-1.1983a3.6729,3.6729,0,0,1-2.8437,1.3926,2.5236,2.5236,0,0,1-1.919-.68,2.6986,2.6986,0,0,1-.6455-1.9365V93.6147h1.417Z" transform="translate(-1.2402)"/><path class="a" d="M43.3086,98.559a3.7607,3.7607,0,0,0,.3887,1.6582,2.3292,2.3292,0,0,0,.9277.9786,2.6107,2.6107,0,0,0,1.2822.3164,3.6159,3.6159,0,0,0,1.211-.1944,5.0441,5.0441,0,0,0,1.16-.6074l.667.9365a5.0827,5.0827,0,0,1-3.0547,1.0469,4.0542,4.0542,0,0,1-2.1933-.5742,3.6205,3.6205,0,0,1-1.3965-1.62,5.7961,5.7961,0,0,1-.4776-2.43,5.72,5.72,0,0,1,.4815-2.3965,3.8848,3.8848,0,0,1,1.3584-1.6494,3.5516,3.5516,0,0,1,2.042-.5947,3.4905,3.4905,0,0,1,1.9277.5234,3.3378,3.3378,0,0,1,1.249,1.5059,5.7216,5.7216,0,0,1,.4346,2.3242q0,.3882-.0342.7763Zm.7383-3.2441a3.4451,3.4451,0,0,0-.73,2.1475h4.6318a3.4375,3.4375,0,0,0-.6162-2.1348,1.957,1.957,0,0,0-1.6113-.7344A2.1444,2.1444,0,0,0,44.0469,95.3149Z" transform="translate(-1.2402)"/><path class="a" d="M52.32,102.5V93.6147h1.2061l.1093,1.2314a3.68,3.68,0,0,1,1.3379-1.0419,3.7653,3.7653,0,0,1,1.5987-.375,2.42,2.42,0,0,1,1.8857.6748,2.7913,2.7913,0,0,1,.6123,1.94V102.5h-1.418V97.0913a8.22,8.22,0,0,0-.1054-1.5186,1.2535,1.2535,0,0,0-.43-.7764,1.5873,1.5873,0,0,0-.9834-.2539,2.3347,2.3347,0,0,0-1.3545.4434,3.9885,3.9885,0,0,0-1.042,1.042V102.5Z" transform="translate(-1.2402)"/><path class="a" d="M68.7734,100.6938l.6914.9277a4.4688,4.4688,0,0,1-1.4.7813,4.787,4.787,0,0,1-1.6036.291,4.282,4.282,0,0,1-2.248-.5654,3.62,3.62,0,0,1-1.4307-1.6035,5.6442,5.6442,0,0,1-.4892-2.43,5.5741,5.5741,0,0,1,.498-2.4,3.8855,3.8855,0,0,1,1.4424-1.6621,4.0822,4.0822,0,0,1,2.2451-.6035,4.5851,4.5851,0,0,1,2.97,1.0293l-.6923.9453a4.0092,4.0092,0,0,0-2.295-.793,2.4465,2.4465,0,0,0-1.375.3877,2.5372,2.5372,0,0,0-.9238,1.1728,4.9161,4.9161,0,0,0-.333,1.9239,3.84,3.84,0,0,0,.7129,2.54,2.3933,2.3933,0,0,0,1.9189.835A4.0171,4.0171,0,0,0,68.7734,100.6938Z" transform="translate(-1.2402)"/><path class="a" d="M72.9922,93.6147h4.0752v7.7627h2.5058V102.5h-6.666v-1.1221h2.7422V94.7368H72.9922Zm3.6953-3.8769a.9474.9474,0,0,1,.2871.7041.9808.9808,0,0,1-.2871.7255,1.0151,1.0151,0,0,1-.751.2871.9868.9868,0,0,1-1.02-1.0126.9466.9466,0,0,1,.2861-.7041,1.0039,1.0039,0,0,1,.7344-.2833A1.0241,1.0241,0,0,1,76.6875,89.7378Z" transform="translate(-1.2402)"/><path class="a" d="M89.0566,100.559a1.3942,1.3942,0,0,0,.169.7715.9848.9848,0,0,0,.5566.3672l-.3457.9961a1.7876,1.7876,0,0,1-1.6279-1.249,3,3,0,0,1-1.1943.9326,3.9225,3.9225,0,0,1-1.5909.3164,3.2769,3.2769,0,0,1-1.5273-.3379,2.35,2.35,0,0,1-.9951-.958,2.9205,2.9205,0,0,1-.3457-1.4463,2.4,2.4,0,0,1,1.0713-2.1094,5.4626,5.4626,0,0,1,3.0966-.7343h1.3077v-.7422a1.5934,1.5934,0,0,0-.54-1.3457,2.5377,2.5377,0,0,0-1.5781-.418,7.151,7.151,0,0,0-2.3115.4551L82.83,93.9858a8.2371,8.2371,0,0,1,2.9023-.5566,3.5873,3.5873,0,0,1,2.4766.7636,2.6885,2.6885,0,0,1,.8476,2.1055Zm-2.417.7217a2.8816,2.8816,0,0,0,.9913-.9248V98.07H86.3486a3.4119,3.4119,0,0,0-2.042.48,1.6345,1.6345,0,0,0-.6328,1.3837,1.4991,1.4991,0,0,0,1.7129,1.68A2.531,2.531,0,0,0,86.64,101.2807Z" transform="translate(-1.2402)"/><path class="b" d="M19.4821,11.7184a36.5653,36.5653,0,0,1,53.0469.3562" transform="translate(-1.2402)"/><path class="b" d="M19.4821,67.2459A36.5653,36.5653,0,0,0,72.529,66.89" transform="translate(-1.2402)"/><path class="b" d="M61.4084,28.6175H83.1377a0,0,0,0,1,0,0V46.6391A3.7077,3.7077,0,0,1,79.43,50.3468H61.4084a0,0,0,0,1,0,0V28.6175a0,0,0,0,1,0,0Z"/><rect class="b" x="33.7729" y="28.6175" width="21.7292" height="21.7292"/><path class="b" d="M9.845,28.6175H27.8665a0,0,0,0,1,0,0V50.3468a0,0,0,0,1,0,0H6.1373a0,0,0,0,1,0,0V32.3252A3.7077,3.7077,0,0,1,9.845,28.6175Z"/><line class="b" x1="5.5033" y1="23.4338" x2="14.8365" y2="23.4338"/><line class="b" x1="19.1636" y1="23.4338" x2="28.4967" y2="23.4338"/><line class="b" x1="32.8238" y1="23.4338" x2="42.157" y2="23.4338"/><line class="b" x1="46.4841" y1="23.4338" x2="55.8172" y2="23.4338"/><line class="b" x1="60.1443" y1="23.4338" x2="69.4775" y2="23.4338"/><line class="b" x1="73.8045" y1="23.4338" x2="83.1377" y2="23.4338"/><line class="b" x1="5.5033" y1="55.5305" x2="14.8365" y2="55.5305"/><line class="b" x1="19.1636" y1="55.5305" x2="28.4967" y2="55.5305"/><line class="b" x1="32.8238" y1="55.5305" x2="42.157" y2="55.5305"/><line class="b" x1="46.4841" y1="55.5305" x2="55.8172" y2="55.5305"/><line class="b" x1="60.1443" y1="55.5305" x2="69.4775" y2="55.5305"/><line class="b" x1="73.8045" y1="55.5305" x2="83.1377" y2="55.5305"/><line class="b" x1="44.6375" y1="33.5557" x2="44.6375" y2="45.4086"/><line class="b" x1="50.5639" y1="39.4822" x2="38.7111" y2="39.4822"/></svg>