<svg xmlns="http://www.w3.org/2000/svg" viewBox="0 0 84.6102 91.8281"><defs><style>.a{opacity:0.5;}.b{fill:#f9e9e1;}.c{fill:none;stroke:#f9e9e1;stroke-miterlimit:10;}</style></defs><title>reportType-signal</title><g class="a"><path class="b" d="M18.6537,86.8926a1.168,1.168,0,0,0,.5947-1.0293,1.4885,1.4885,0,0,0-.1552-.7217,1.4117,1.4117,0,0,0-.6162-.5186,6.709,6.709,0,0,0-1.38-.4638,9.4537,9.4537,0,0,1-1.666-.5528,2.5569,2.5569,0,0,1-1.0039-.7812,1.987,1.987,0,0,1-.3594-1.2227,2.0467,2.0467,0,0,1,.4219-1.2832,2.6711,2.6711,0,0,1,1.1855-.8437,4.9,4.9,0,0,1,1.7686-.2949,5.7711,5.7711,0,0,1,1.81.2656,5.0365,5.0365,0,0,1,1.4131.7129l-.624.9619a4.8046,4.8046,0,0,0-1.169-.5859,4.4159,4.4159,0,0,0-1.413-.2071,2.6961,2.6961,0,0,0-1.4639.3076,1.052,1.052,0,0,0-.2451,1.5069,1.811,1.811,0,0,0,.7.4512,13.5338,13.5338,0,0,0,1.4472.46,8.001,8.001,0,0,1,1.5782.582,2.538,2.538,0,0,1,.9619.84,2.3348,2.3348,0,0,1,.3457,1.32,2.1844,2.1844,0,0,1-.5235,1.4971,3.0454,3.0454,0,0,1-1.3711.874,5.9091,5.9091,0,0,1-1.8515.2783,5.1214,5.1214,0,0,1-3.4766-1.1982l.8106-.9366a4.0718,4.0718,0,0,0,1.2226.709,4.14,4.14,0,0,0,1.4434.253A2.9794,2.9794,0,0,0,18.6537,86.8926Z"/><path class="b" d="M24.5649,79.3662H28.64v7.7627h2.5059V88.251H24.48V87.1289h2.7422V80.4883H24.5649ZM28.26,75.4893a.9474.9474,0,0,1,.2871.7041.9808.9808,0,0,1-.2871.7255,1.0148,1.0148,0,0,1-.751.2872.9869.9869,0,0,1-1.02-1.0127.9466.9466,0,0,1,.2861-.7041,1.0035,1.0035,0,0,1,.7344-.2832A1.024,1.024,0,0,1,28.26,75.4893Z"/><path class="b" d="M41.9291,79.7539a5.29,5.29,0,0,1-1.1182.2109q-.5946.0513-1.48.0508a2.3419,2.3419,0,0,1,1.5439,2.2364,3.05,3.05,0,0,1-.4013,1.5654,2.7362,2.7362,0,0,1-1.1553,1.0713,3.8971,3.8971,0,0,1-1.7852.3838,6.0079,6.0079,0,0,1-.7383-.0381,3.1763,3.1763,0,0,1-.5859-.1309,1.1294,1.1294,0,0,0-.333.376.9663.9663,0,0,0-.1309.4853.6382.6382,0,0,0,.27.544,1.6053,1.6053,0,0,0,.92.1982h1.6035a3.9392,3.9392,0,0,1,1.5986.3164,2.7471,2.7471,0,0,1,1.1309.8692,2.015,2.015,0,0,1,.4092,1.2275,2.2411,2.2411,0,0,1-1.1055,2.0078,5.8745,5.8745,0,0,1-3.1387.7,6.9825,6.9825,0,0,1-2.2236-.2861,2.12,2.12,0,0,1-1.1768-.874,2.8937,2.8937,0,0,1-.3544-1.5147h1.2822a1.6144,1.6144,0,0,0,.207.874,1.2688,1.2688,0,0,0,.7422.4854,5.5687,5.5687,0,0,0,1.5146.16A4.7548,4.7548,0,0,0,39.558,90.31a1.172,1.172,0,0,0,.6836-1.0967,1.04,1.04,0,0,0-.5566-.9453,2.8391,2.8391,0,0,0-1.4522-.3291H36.6469a3.0088,3.0088,0,0,1-1.24-.2276,1.6768,1.6768,0,0,1-.7509-.6074,1.5088,1.5088,0,0,1-.2442-.8349,1.5566,1.5566,0,0,1,.253-.836,2.3861,2.3861,0,0,1,.7255-.7168,2.8112,2.8112,0,0,1-1.1308-1.0039,2.75,2.75,0,0,1-.3633-1.4512,2.8873,2.8873,0,0,1,.4522-1.5908,3.06,3.06,0,0,1,1.2568-1.1015,4.11,4.11,0,0,1,1.835-.3965,14.6787,14.6787,0,0,0,1.7724-.0879,6.7339,6.7339,0,0,0,1.1768-.2412,11.7748,11.7748,0,0,0,1.1015-.4219Zm-6.0537,1.0127a2.0709,2.0709,0,0,0,1.5986,3.5605,1.8456,1.8456,0,0,0,1.43-.5439,2.1721,2.1721,0,0,0,.502-1.5312,2.1244,2.1244,0,0,0-.4971-1.5235A1.9438,1.9438,0,0,0,37.44,80.21,2.054,2.054,0,0,0,35.8754,80.7666Z"/><path class="b" d="M44.392,88.251V79.3662h1.2061l.1093,1.2315a3.679,3.679,0,0,1,1.3379-1.042,3.7653,3.7653,0,0,1,1.5987-.375,2.42,2.42,0,0,1,1.8857.6748,2.7913,2.7913,0,0,1,.6123,1.94V88.251H49.724V82.8428a8.2211,8.2211,0,0,0-.1054-1.5186,1.2534,1.2534,0,0,0-.43-.7763,1.5866,1.5866,0,0,0-.9834-.254,2.3347,2.3347,0,0,0-1.3545.4434,3.9885,3.9885,0,0,0-1.042,1.042V88.251Z"/><path class="b" d="M60.8783,86.3105a1.3942,1.3942,0,0,0,.169.7715.9848.9848,0,0,0,.5566.3672l-.3457.9961a1.7874,1.7874,0,0,1-1.6279-1.249,2.9994,2.9994,0,0,1-1.1944.9326,3.9217,3.9217,0,0,1-1.5908.3164,3.2769,3.2769,0,0,1-1.5273-.3379,2.35,2.35,0,0,1-.9951-.958,2.9205,2.9205,0,0,1-.3457-1.4463,2.4,2.4,0,0,1,1.0712-2.1093,5.4622,5.4622,0,0,1,3.0967-.7344h1.3076v-.7422a1.5933,1.5933,0,0,0-.54-1.3457,2.5377,2.5377,0,0,0-1.5781-.418,7.1505,7.1505,0,0,0-2.3115.4551l-.3711-1.0713a8.2371,8.2371,0,0,1,2.9023-.5566,3.5876,3.5876,0,0,1,2.4766.7636,2.6885,2.6885,0,0,1,.8476,2.1055Zm-2.417.7217a2.88,2.88,0,0,0,.9912-.9248V83.8213H58.17a3.4119,3.4119,0,0,0-2.042.4805,1.6345,1.6345,0,0,0-.6328,1.3837,1.4991,1.4991,0,0,0,1.7129,1.68A2.531,2.531,0,0,0,58.4613,87.0322Z"/><path class="b" d="M68.101,86.0576a1.0642,1.0642,0,0,0,.3926.9151,1.768,1.768,0,0,0,1.0752.291,3.9818,3.9818,0,0,0,1.4941-.3125l.38,1.0381a4.3364,4.3364,0,0,1-.9453.3291,5.0673,5.0673,0,0,1-1.1641.1269,3.116,3.116,0,0,1-1.3887-.2959,2.1474,2.1474,0,0,1-.9316-.8515,2.5386,2.5386,0,0,1-.3291-1.3165v-9.07H63.9584v-1.122H68.101Z"/></g><g class="a"><path class="c" d="M0,34.8765H11.4623a.26.26,0,0,0,.2559-.1462l6.6044-20.671L24.831,43.3475l4.7219-13.9029,1.8822,7.4684h0l5.1764-11.9424L43.2,41.9118l5.6471-10.353,5.2722,8.5344,9.7627-18.4407,7.9774,14.4344a.2592.2592,0,0,0,.2564.1476H84.61"/><path class="c" d="M52.2414,42.4827a14.1175,14.1175,0,0,1-19.9653,0"/><path class="c" d="M32.2761,22.5173a14.1175,14.1175,0,0,1,19.9653,0"/><path class="c" d="M57.5655,47.8068a21.647,21.647,0,0,1-30.6135,0"/><path class="c" d="M26.952,17.1932a21.647,21.647,0,0,1,30.6135,0"/><path class="c" d="M19.6313,9.8726a32,32,0,0,1,45.2549,0"/><path class="c" d="M64.8862,55.1274a32,32,0,0,1-45.2549,0"/></g></svg>