<svg xmlns="http://www.w3.org/2000/svg" viewBox="0 0 96.1344 95.1217"><defs><style>.a{fill:#f9e9e1;}.b{fill:none;stroke:#f9e9e1;stroke-miterlimit:10;}</style></defs><title>reportType-sequence</title><path class="a" d="M8.5885,93.569A1.1679,1.1679,0,0,0,9.1832,92.54a1.4884,1.4884,0,0,0-.1553-.7217A1.41,1.41,0,0,0,8.4117,91.3a6.706,6.706,0,0,0-1.38-.4639,9.4684,9.4684,0,0,1-1.666-.5527,2.5587,2.5587,0,0,1-1.0039-.7813,1.9869,1.9869,0,0,1-.3594-1.2226,2.0471,2.0471,0,0,1,.4219-1.2832A2.6714,2.6714,0,0,1,5.61,86.152a4.8991,4.8991,0,0,1,1.7685-.2949,5.7713,5.7713,0,0,1,1.81.2656,5.0365,5.0365,0,0,1,1.4131.7129l-.6241.9619a4.8022,4.8022,0,0,0-1.1689-.5859,4.4161,4.4161,0,0,0-1.4131-.2071,2.6956,2.6956,0,0,0-1.4639.3077,1.0521,1.0521,0,0,0-.2451,1.5068,1.8114,1.8114,0,0,0,.7.4512,13.5447,13.5447,0,0,0,1.4473.46,7.9969,7.9969,0,0,1,1.5781.5821,2.5355,2.5355,0,0,1,.9619.84,2.334,2.334,0,0,1,.3457,1.32,2.1849,2.1849,0,0,1-.5234,1.4971,3.0451,3.0451,0,0,1-1.3711.874,5.9064,5.9064,0,0,1-1.8516.2783,5.121,5.121,0,0,1-3.4765-1.1982l.81-.9365a4.0754,4.0754,0,0,0,1.2227.7089,4.14,4.14,0,0,0,1.4433.253A2.98,2.98,0,0,0,8.5885,93.569Z"/><path class="a" d="M15.191,90.987a3.7625,3.7625,0,0,0,.3887,1.6582,2.329,2.329,0,0,0,.9277.9785A2.6107,2.6107,0,0,0,17.79,93.94a3.6184,3.6184,0,0,0,1.211-.1943,5.0467,5.0467,0,0,0,1.16-.6075l.667.9366a5.0829,5.0829,0,0,1-3.0547,1.0468,4.0542,4.0542,0,0,1-2.1933-.5742,3.6205,3.6205,0,0,1-1.3965-1.62,5.7958,5.7958,0,0,1-.4775-2.43,5.72,5.72,0,0,1,.4814-2.3965,3.8848,3.8848,0,0,1,1.3584-1.6494,3.5518,3.5518,0,0,1,2.042-.5947,3.49,3.49,0,0,1,1.9277.5234,3.3378,3.3378,0,0,1,1.249,1.5059,5.7219,5.7219,0,0,1,.4346,2.3242q0,.3882-.0342.7764Zm.7383-3.2442A3.4457,3.4457,0,0,0,15.2,89.89h4.6318a3.4368,3.4368,0,0,0-.6162-2.1348,1.9572,1.9572,0,0,0-1.6113-.7344A2.1449,2.1449,0,0,0,15.9293,87.7428Z"/><path class="a" d="M30.5309,93.1217l.6914.9278a4.4711,4.4711,0,0,1-1.4.7812,4.7844,4.7844,0,0,1-1.6035.291,4.2814,4.2814,0,0,1-2.2481-.5654A3.6191,3.6191,0,0,1,24.54,92.9528a5.6442,5.6442,0,0,1-.4892-2.43,5.5747,5.5747,0,0,1,.498-2.4,3.8862,3.8862,0,0,1,1.4424-1.6621,4.083,4.083,0,0,1,2.2451-.6035,4.5861,4.5861,0,0,1,2.97,1.0293l-.6924.9453a4.0091,4.0091,0,0,0-2.2949-.793,2.4461,2.4461,0,0,0-1.375.3877,2.5365,2.5365,0,0,0-.9239,1.1729,4.9153,4.9153,0,0,0-.333,1.9238,3.84,3.84,0,0,0,.7129,2.54,2.3934,2.3934,0,0,0,1.919.835A4.0175,4.0175,0,0,0,30.5309,93.1217Z"/><path class="a" d="M35.7437,92.3375a1.8349,1.8349,0,0,0,.3584,1.2608,1.4682,1.4682,0,0,0,1.1348.3926A2.5754,2.5754,0,0,0,38.6,93.5856a3.1522,3.1522,0,0,0,1.042-1.0039V86.0426h1.417v8.8848H39.8531l-.1181-1.1983a3.6733,3.6733,0,0,1-2.8438,1.3926,2.5228,2.5228,0,0,1-1.9189-.68,2.6982,2.6982,0,0,1-.6456-1.9365V86.0426h1.417Z"/><path class="a" d="M45.565,90.987a3.7625,3.7625,0,0,0,.3887,1.6582,2.33,2.33,0,0,0,.9277.9785,2.6109,2.6109,0,0,0,1.2823.3164,3.6182,3.6182,0,0,0,1.2109-.1943,5.0472,5.0472,0,0,0,1.16-.6075l.6669.9366a5.0829,5.0829,0,0,1-3.0546,1.0468,4.0545,4.0545,0,0,1-2.1934-.5742,3.6205,3.6205,0,0,1-1.3965-1.62,5.7973,5.7973,0,0,1-.4775-2.43,5.72,5.72,0,0,1,.4814-2.3965A3.8855,3.8855,0,0,1,45.92,86.4518a3.5518,3.5518,0,0,1,2.042-.5947,3.49,3.49,0,0,1,1.9277.5234,3.3386,3.3386,0,0,1,1.2491,1.5059,5.7236,5.7236,0,0,1,.4345,2.3242q0,.3882-.0341.7764Zm.7383-3.2442a3.4457,3.4457,0,0,0-.73,2.1475h4.6319a3.4368,3.4368,0,0,0-.6163-2.1348,1.9572,1.9572,0,0,0-1.6113-.7344A2.1449,2.1449,0,0,0,46.3033,87.7428Z"/><path class="a" d="M54.5767,94.9274V86.0426h1.2061l.1094,1.2315a3.68,3.68,0,0,1,1.3379-1.042,3.7652,3.7652,0,0,1,1.5986-.375,2.42,2.42,0,0,1,1.8857.6748,2.7915,2.7915,0,0,1,.6123,1.94v6.4551H59.9088V89.5192a8.2193,8.2193,0,0,0-.1055-1.5186,1.2529,1.2529,0,0,0-.43-.7763A1.5866,1.5866,0,0,0,58.39,86.97a2.3346,2.3346,0,0,0-1.3545.4433,3.9885,3.9885,0,0,0-1.042,1.042v6.4717Z"/><path class="a" d="M71.03,93.1217l.6914.9278a4.4711,4.4711,0,0,1-1.4.7812,4.7844,4.7844,0,0,1-1.6035.291,4.2814,4.2814,0,0,1-2.2481-.5654,3.6183,3.6183,0,0,1-1.4306-1.6035,5.6428,5.6428,0,0,1-.4893-2.43,5.5732,5.5732,0,0,1,.4981-2.4A3.8859,3.8859,0,0,1,66.49,86.4606a4.0831,4.0831,0,0,1,2.2452-.6035,4.5858,4.5858,0,0,1,2.97,1.0293l-.6924.9453a4.0091,4.0091,0,0,0-2.2949-.793,2.4461,2.4461,0,0,0-1.375.3877,2.5365,2.5365,0,0,0-.9239,1.1729,4.9153,4.9153,0,0,0-.333,1.9238,3.84,3.84,0,0,0,.7129,2.54,2.3935,2.3935,0,0,0,1.919.835A4.0175,4.0175,0,0,0,71.03,93.1217Z"/><path class="a" d="M75.2486,86.0426h4.0752v7.7627H81.83v1.1221h-6.666V93.8053h2.7422V87.1647H75.2486Zm3.6953-3.8769a.9474.9474,0,0,1,.2871.7041.9812.9812,0,0,1-.2871.7256,1.015,1.015,0,0,1-.7509.2871.9868.9868,0,0,1-1.02-1.0127.9466.9466,0,0,1,.2861-.7041,1.0035,1.0035,0,0,1,.7344-.2832A1.0239,1.0239,0,0,1,78.9439,82.1657Z"/><path class="a" d="M91.3131,92.987a1.3941,1.3941,0,0,0,.1689.7714.9845.9845,0,0,0,.5567.3672l-.3457.9961a1.7877,1.7877,0,0,1-1.628-1.249,2.9991,2.9991,0,0,1-1.1943.9326,3.92,3.92,0,0,1-1.5908.3164,3.2771,3.2771,0,0,1-1.5274-.3379,2.35,2.35,0,0,1-.9951-.958,2.9205,2.9205,0,0,1-.3457-1.4463A2.4,2.4,0,0,1,85.483,90.27a5.4622,5.4622,0,0,1,3.0967-.7344h1.3076v-.7422a1.5937,1.5937,0,0,0-.54-1.3457,2.5382,2.5382,0,0,0-1.5782-.418,7.1515,7.1515,0,0,0-2.3115.4551l-.3711-1.0713a8.2372,8.2372,0,0,1,2.9024-.5566,3.5872,3.5872,0,0,1,2.4765.7637,2.6878,2.6878,0,0,1,.8477,2.1054Zm-2.417.7216a2.88,2.88,0,0,0,.9912-.9248V90.4977H88.6051a3.4124,3.4124,0,0,0-2.042.4805A1.6345,1.6345,0,0,0,85.93,92.362a1.4991,1.4991,0,0,0,1.7129,1.68A2.5316,2.5316,0,0,0,88.8961,93.7086Z"/><path class="b" d="M23.671,10.9446a34.0433,34.0433,0,0,1,49.3881.3317"/><path class="b" d="M23.671,60.78a34.0433,34.0433,0,0,0,49.3881-.3317"/><path class="b" d="M68.8671,22.4788H95.6344a0,0,0,0,1,0,0v22.2a4.5673,4.5673,0,0,1-4.5673,4.5673h-22.2a0,0,0,0,1,0,0V22.4788A0,0,0,0,1,68.8671,22.4788Z"/><rect class="b" x="34.824" y="22.4788" width="26.7673" height="26.7673"/><path class="b" d="M5.3483,22.4788h22.2a0,0,0,0,1,0,0V49.2461a0,0,0,0,1,0,0H.781a0,0,0,0,1,0,0v-22.2A4.5673,4.5673,0,0,1,5.3483,22.4788Z"/><line class="b" y1="16.0931" x2="11.4971" y2="16.0931"/><line class="b" x1="16.8275" y1="16.0931" x2="28.3246" y2="16.0931"/><line class="b" x1="33.6549" y1="16.0931" x2="45.152" y2="16.0931"/><line class="b" x1="50.4824" y1="16.0931" x2="61.9795" y2="16.0931"/><line class="b" x1="67.3098" y1="16.0931" x2="78.8069" y2="16.0931"/><line class="b" x1="84.1373" y1="16.0931" x2="95.6344" y2="16.0931"/><line class="b" y1="55.6317" x2="11.4971" y2="55.6317"/><line class="b" x1="16.8275" y1="55.6317" x2="28.3246" y2="55.6317"/><line class="b" x1="33.6549" y1="55.6317" x2="45.152" y2="55.6317"/><line class="b" x1="50.4824" y1="55.6317" x2="61.9795" y2="55.6317"/><line class="b" x1="67.3098" y1="55.6317" x2="78.8069" y2="55.6317"/><line class="b" x1="84.1373" y1="55.6317" x2="95.6344" y2="55.6317"/><line class="b" x1="48.2077" y1="28.5619" x2="48.2077" y2="43.1629"/><line class="b" x1="55.5082" y1="35.8624" x2="40.9072" y2="35.8624"/></svg>