<svg xmlns="http://www.w3.org/2000/svg" viewBox="0 0 66.359 102.792"><defs><style>.a{fill:none;stroke:#f9e9e1;stroke-miterlimit:10;}.b{fill:#f9e9e1;}</style></defs><title>reportType-text</title><path class="a" d="M21.2272,8.25H65.859V64.4477A15.1148,15.1148,0,0,1,50.7442,79.5625H8.3619v-9.475"/><polyline class="a" points="8.362 33.619 8.362 8.249 15.645 8.249"/><polyline class="a" points="49.622 46.98 0.5 46.98 0.5 41.418 54.832 41.418"/><path class="a" d="M24.4713,16.8736v-3.11a2.1,2.1,0,0,1,2.0995-2.0995h0A2.0994,2.0994,0,0,1,28.67,13.7633V19.54a5.0975,5.0975,0,0,1-5.0975,5.0976h0A5.0975,5.0975,0,0,1,18.4751,19.54V5.5976A5.0975,5.0975,0,0,1,23.5726.5h0A5.0975,5.0975,0,0,1,28.67,5.5976V5.71"/><polyline class="a" points="35.213 62.056 0.5 62.056 0.5 56.494 40.423 56.494"/><path class="b" d="M16.6175,102.15a3.7011,3.7011,0,0,1-1.1015.4687,4.9876,4.9876,0,0,1-1.2784.1729A3.51,3.51,0,0,1,12.63,102.45a2.42,2.42,0,0,1-1.0244-.9492,2.7128,2.7128,0,0,1-.3545-1.3926V94.81H9.2093V93.7129h2.042V91.6963l1.417-.169v2.1856H15.74l-.169,1.0967H12.6683v5.2822a1.4959,1.4959,0,0,0,.4014,1.1387,1.8355,1.8355,0,0,0,1.2949.38,3.607,3.607,0,0,0,1.7041-.4219Z"/><path class="b" d="M20.8021,98.6572a3.7607,3.7607,0,0,0,.3887,1.6582,2.3284,2.3284,0,0,0,.9277.9785,2.61,2.61,0,0,0,1.2822.3165,3.6159,3.6159,0,0,0,1.211-.1944,5.0441,5.0441,0,0,0,1.16-.6074l.667.9365a5.0827,5.0827,0,0,1-3.0547,1.0469,4.0542,4.0542,0,0,1-2.1933-.5742,3.621,3.621,0,0,1-1.3965-1.62,5.7961,5.7961,0,0,1-.4776-2.43,5.72,5.72,0,0,1,.4815-2.3965,3.8848,3.8848,0,0,1,1.3584-1.6494,3.5517,3.5517,0,0,1,2.042-.5948,3.49,3.49,0,0,1,1.9277.5235,3.338,3.338,0,0,1,1.249,1.5058,5.7224,5.7224,0,0,1,.4346,2.3243q0,.3881-.0342.7763Zm.7383-3.2441a3.4451,3.4451,0,0,0-.73,2.1474h4.6318a3.4371,3.4371,0,0,0-.6162-2.1347,1.957,1.957,0,0,0-1.6113-.7344A2.1444,2.1444,0,0,0,21.54,95.4131Z"/><path class="b" d="M33.138,98.7842l-2.4638,3.8135h-1.62l3.2823-4.6914-2.877-4.1934H31.138l2.0586,3.3076,2.084-3.3076h1.62l-2.8681,4.1348,3.2734,4.75H35.5677Z"/><path class="b" d="M46.9915,102.15a3.7011,3.7011,0,0,1-1.1015.4687,4.9874,4.9874,0,0,1-1.2783.1729,3.51,3.51,0,0,1-1.6075-.3418,2.42,2.42,0,0,1-1.0244-.9492,2.7128,2.7128,0,0,1-.3545-1.3926V94.81h-2.042V93.7129h2.042V91.6963l1.417-.169v2.1856h3.0713L45.9447,94.81H43.0423v5.2822a1.4959,1.4959,0,0,0,.4014,1.1387,1.8355,1.8355,0,0,0,1.2949.38,3.607,3.607,0,0,0,1.7041-.4219Z"/><path class="b" d="M55.53,94.0889a3.4478,3.4478,0,0,1,1.2871,1.6025,6.36,6.36,0,0,1,.4346,2.46,6.154,6.154,0,0,1-.4433,2.4209,3.4725,3.4725,0,0,1-3.379,2.22,3.69,3.69,0,0,1-2.0878-.5693,3.5226,3.5226,0,0,1-1.2959-1.6075,6.2662,6.2662,0,0,1-.4385-2.4472,6.1781,6.1781,0,0,1,.4433-2.43,3.59,3.59,0,0,1,1.3077-1.6289,3.6529,3.6529,0,0,1,2.0878-.5821A3.7049,3.7049,0,0,1,55.53,94.0889ZM51.7074,95.54a6.2037,6.2037,0,0,0-.0078,5.23,2.1743,2.1743,0,0,0,3.4589,0,6.2418,6.2418,0,0,0,0-5.23,1.9249,1.9249,0,0,0-1.7129-.8564A1.9632,1.9632,0,0,0,51.7074,95.54Z"/></svg>