<svg xmlns="http://www.w3.org/2000/svg" xmlns:xlink="http://www.w3.org/1999/xlink" viewBox="0 0 511.2 487.6"><defs><style>.a{opacity:0.4;}.b,.c,.d,.e,.i,.l,.m,.n,.o{fill:none;stroke-miterlimit:10;}.b{stroke:url(#a);}.c{stroke:url(#b);}.d{stroke:url(#c);}.e{stroke:url(#d);}.f{fill:#f9e9e1;}.g{fill:url(#e);}.h{opacity:0.3;}.i{stroke:#f9e9e1;}.j{fill:url(#f);}.k{fill:url(#g);}.l{stroke:url(#h);}.m{stroke:url(#i);}.n{stroke:url(#j);}.o{stroke:url(#k);}.p{fill:url(#l);}.q{fill:url(#m);}.r{fill:url(#n);}</style><linearGradient id="a" x1="-989.9929" y1="4865.5571" x2="-965.4929" y2="4865.5571" gradientTransform="translate(-965.4929 4996.5071) rotate(180)" gradientUnits="userSpaceOnUse"><stop offset="0.0056" stop-color="#f9e9e1"/><stop offset="0.4537" stop-color="#f7e7df"/><stop offset="0.6151" stop-color="#f1e1d8"/><stop offset="0.7302" stop-color="#e6d5cd"/><stop offset="0.8232" stop-color="#d6c4bc"/><stop offset="0.9028" stop-color="#c2afa6"/><stop offset="0.9722" stop-color="#a9958b"/><stop offset="1" stop-color="#9d887e"/></linearGradient><linearGradient id="b" x1="-9073.3" y1="4865.5571" x2="-9048.8" y2="4865.5571" gradientTransform="matrix(1, 0, 0, -1, 9560, 4996.5071)" xlink:href="#a"/><linearGradient id="c" x1="-8925.3" y1="490.25" x2="-8900.8" y2="490.25" gradientTransform="translate(9412 -478)" xlink:href="#a"/><linearGradient id="d" x1="-1767.9929" y1="490.25" x2="-1743.4929" y2="490.25" gradientTransform="matrix(-1, 0, 0, 1, -1743.4929, -478)" xlink:href="#a"/><linearGradient id="e" x1="93.1588" y1="27.025" x2="93.1588" y2="116.1749" gradientTransform="translate(186.3177 143.2) rotate(180)" xlink:href="#a"/><linearGradient id="f" x1="157.7239" y1="388.7686" x2="157.7239" y2="443.32" gradientTransform="matrix(0.9992, -0.04, 0.04, 0.9992, -97.3213, 24.795)" xlink:href="#a"/><linearGradient id="g" x1="197.7225" y1="355.0233" x2="197.7225" y2="396.6568" gradientTransform="translate(76.4417 -30.4763) rotate(22.4999)" xlink:href="#a"/><linearGradient id="h" x1="-989.9929" y1="4693.3571" x2="-965.4929" y2="4693.3571" xlink:href="#a"/><linearGradient id="i" x1="-9073.3" y1="4693.3571" x2="-9048.8" y2="4693.3571" gradientTransform="matrix(1, 0, 0, -1, 9560, 4996.5071)" xlink:href="#a"/><linearGradient id="j" x1="-8925.3" y1="662.45" x2="-8900.8" y2="662.45" gradientTransform="translate(9412 -478)" xlink:href="#a"/><linearGradient id="k" x1="-1767.9929" y1="662.45" x2="-1743.4929" y2="662.45" gradientTransform="matrix(-1, 0, 0, 1, -1743.4929, -478)" xlink:href="#a"/><linearGradient id="l" x1="93.3822" y1="264.8333" x2="93.3822" y2="287.1379" gradientTransform="matrix(1, 0, 0, 1, 0, 0)" xlink:href="#a"/><linearGradient id="m" x1="93.385" y1="200.4621" x2="93.385" y2="208.0024" gradientTransform="matrix(1, 0, 0, 1, 0, 0)" xlink:href="#a"/><linearGradient id="n" x1="93.385" y1="212.4938" x2="93.385" y2="220.0351" gradientTransform="matrix(1, 0, 0, 1, 0, 0)" xlink:href="#a"/></defs><title>stationsList</title><g class="a"><path class="b" d="M.5,118.7v19.1724A4.8276,4.8276,0,0,0,5.3276,142.7H24.5"/><path class="c" d="M510.7,118.7v19.1724a4.8276,4.8276,0,0,1-4.8276,4.8276H486.7"/><path class="d" d="M510.7,24.5V5.3276A4.8276,4.8276,0,0,0,505.8724.5H486.7"/><path class="e" d="M.5,24.5V5.3276A4.8276,4.8276,0,0,1,5.3276.5H24.5"/></g><path class="f" d="M200.3908,86.5416V66.6188h4.9814v-4.98h9.9609v4.98h4.9805V86.5416h-4.9805V76.58h-9.9609v9.9619Zm4.9814-29.8847v-4.98h4.9805v-4.98h4.98v4.98h-4.98v4.98Zm0,14.9423h9.9609V66.818h-9.9609Z"/><path class="f" d="M230.2755,86.5416V61.6383h14.9424v4.98h4.9805v4.98h-4.9805v9.9619h4.9805v4.9805h-4.9805V81.5611h-4.98V76.58h-4.98v9.9619Zm4.9815-14.9424h9.7617v-4.98H235.257Z"/><path class="f" d="M265.1408,86.5416V66.6188h-4.9815v-4.98h14.9424v4.98h-4.9805V86.5416Z"/><path class="f" d="M285.0636,86.5416V61.6383h4.9814V86.5416Z"/><path class="f" d="M304.9874,86.5416V81.5611H300.006V66.6188h4.9814V81.5611h9.961v4.9805Zm9.961-14.9424v-4.98h-9.961v-4.98h9.961v4.98h4.98v4.98Zm0,9.9619V76.58h4.98v4.9814Z"/><path class="f" d="M334.8712,86.5416V81.5611H329.89V66.6188h4.9814v-4.98h9.961v4.98h4.98V81.5611h-4.98v4.9805Zm0-5.18h9.961V66.818h-9.961Z"/><path class="g" d="M93.1588,27.025A44.575,44.575,0,1,0,137.7338,71.6,44.6254,44.6254,0,0,0,93.1588,27.025Zm0,88.09a43.4965,43.4965,0,0,1-23.4129-80.166C72.426,45.3926,81.8793,53.6,93.1588,53.6s20.7327-8.2074,23.413-18.6508a43.4965,43.4965,0,0,1-23.413,80.166Z"/><g class="h"><path class="i" d="M510.7,463.1v19.1723a4.8276,4.8276,0,0,1-4.8276,4.8277H486.7"/><path class="i" d="M510.7,368.9V349.7276a4.8276,4.8276,0,0,0-4.8276-4.8276H486.7"/><path class="i" d="M.5,463.1v19.1723A4.8276,4.8276,0,0,0,5.3276,487.1H24.5"/><path class="i" d="M.5,368.9V349.7276A4.8276,4.8276,0,0,1,5.3276,344.9H24.5"/></g><path class="f" d="M199.5758,427.9537V403.05h4.9815v19.9229h9.9609v4.98Z"/><path class="f" d="M229.4606,427.9537v-4.98h-4.9815V403.05h4.9815v19.9229h9.9609v4.98Zm9.9609-4.98V403.05h4.98v19.9229Z"/><path class="f" d="M254.3639,427.9537V403.05h4.9814v4.98h4.9805v4.98h4.9805v4.9805h4.98V403.05h4.9815v24.9033h-4.9815v-4.98h-4.98v-4.9815h-4.9805v-4.9805h-4.9805v14.9424Z"/><path class="f" d="M289.2291,427.9537V408.0309h4.9815v-4.98h9.9609v4.98h4.9805v19.9228h-4.9805v-9.9619h-9.9609v9.9619Zm4.9815-14.9424h9.9609V408.23h-9.9609Z"/><path class="f" d="M319.1139,427.9537V403.05h14.9424v4.98h4.98v4.98h-4.98v9.962h4.98v4.98h-4.98v-4.98h-4.9805v-4.9815h-4.9805v9.9619Zm4.9814-14.9424h9.7618v-4.98h-9.7618Z"/><path class="j" d="M48.5839,408.0307l.0424,1.0589a53.5518,53.5518,0,0,1,55.5888,51.3077l1.0588-.0425A54.6128,54.6128,0,0,0,48.5839,408.0307Z"/><circle class="k" cx="115.2863" cy="392.4198" r="20.8167" transform="translate(-153.9364 84.5182) rotate(-24.7939)"/><g class="a"><path class="l" d="M.5,290.9v19.1723A4.8276,4.8276,0,0,0,5.3276,314.9H24.5"/><path class="m" d="M510.7,290.9v19.1723a4.8276,4.8276,0,0,1-4.8276,4.8277H486.7"/><path class="n" d="M510.7,196.7V177.5276a4.8276,4.8276,0,0,0-4.8276-4.8276H486.7"/><path class="o" d="M.5,196.7V177.5276A4.8276,4.8276,0,0,1,5.3276,172.7H24.5"/></g><path class="f" d="M215.5592,250.7731v-4.9825h-9.9609v-4.98h-4.9815V235.83h4.9815V240.81h9.9609v4.98H220.54v4.9825Zm-14.9424,4.98v-4.98h14.9424v4.98Zm4.9815-19.9238v-4.9805H220.54V235.83Z"/><path class="f" d="M235.483,255.7535v-4.98h-4.9814V230.8492h4.9814v19.9239h9.961v4.98Zm9.961-4.98V230.8492h4.98v19.9239Z"/><path class="f" d="M260.3854,255.7535V230.8492h14.9424V235.83h4.98v14.9434h-4.98v4.98Zm4.9814-14.9433h9.7617V235.83h-9.7617Zm0,9.9629h9.7617v-4.9825h-9.7617Z"/><path class="f" d="M290.27,255.7535V230.8492h4.9815V235.83h4.9805V240.81h4.98v4.98h-4.98v-4.98h-4.9805v14.9433Zm19.9229,0V240.81h-4.9805V235.83h4.9805v-4.9805h4.9814v24.9043Z"/><path class="f" d="M325.1354,255.7535V235.83h4.9814v-4.9805h9.961V235.83h4.98v19.9238h-4.98v-9.9629h-9.961v9.9629Zm4.9814-14.9433h9.961v-4.7813h-9.961Z"/><path class="f" d="M355.02,255.7535V230.8492h14.9424V235.83h4.9805V240.81h-4.9805v9.9629h4.9805v4.98h-4.9805v-4.98h-4.98v-4.9825h-4.9805v9.9629Zm4.9815-14.9433h9.7617V235.83h-9.7617Z"/><path class="f" d="M384.9049,255.7535V230.8492h4.9815v24.9043Z"/><path class="f" d="M399.8473,255.7535V230.8492h4.9814V235.83h4.98V240.81H414.79v4.98h4.98V230.8492h4.9815v24.9043H419.77v-4.98h-4.98v-4.9825h-4.9805v-4.98h-4.98v14.9433Z"/><path class="f" d="M434.7125,255.7535V235.83h4.9815v-4.9805h9.9609V235.83h4.9805v19.9238h-4.9805v-9.9629H439.694v9.9629ZM439.694,240.81h9.9609v-4.7813H439.694Z"/><path class="p" d="M93.3824,264.8333a22.3046,22.3046,0,0,0-22.3048,22.3046h44.6093A22.3044,22.3044,0,0,0,93.3824,264.8333Z"/><path class="q" d="M63.5847,201.5218c5.5563,0,10.9129,1.1581,14.6965,3.1782a32.9968,32.9968,0,0,0,15.1953,3.3024,33.5991,33.5991,0,0,0,15.0019-3.4,32.2053,32.2053,0,0,1,14.5123-3.0809c5.5563,0,10.9129,1.1581,14.6965,3.1782l.4988-.9355a32.9968,32.9968,0,0,0-15.1953-3.3024A33.2627,33.2627,0,0,0,107.99,203.663a32.5194,32.5194,0,0,1-14.5134,3.28c-5.5563,0-10.9129-1.158-14.6965-3.1781a32.9968,32.9968,0,0,0-15.1953-3.3024,33.2624,33.2624,0,0,0-15.0008,3.2009l.4884.94A32.206,32.206,0,0,1,63.5847,201.5218Z"/><path class="r" d="M107.99,215.6947a32.5131,32.5131,0,0,1-14.5134,3.2806c-5.5563,0-10.9129-1.158-14.6965-3.1781a33.0026,33.0026,0,0,0-15.1953-3.3034,33.2748,33.2748,0,0,0-15.0008,3.2009l.4884.94a32.2187,32.2187,0,0,1,14.5124-3.0809,32.3948,32.3948,0,0,1,14.6965,3.1792,32.9968,32.9968,0,0,0,15.1953,3.3024,33.5929,33.5929,0,0,0,15.0019-3.4007,32.218,32.218,0,0,1,14.5123-3.0809,32.3948,32.3948,0,0,1,14.6965,3.1792l.4988-.9355a33.0026,33.0026,0,0,0-15.1953-3.3034A33.2751,33.2751,0,0,0,107.99,215.6947Z"/></svg>