<svg xmlns="http://www.w3.org/2000/svg" xmlns:xlink="http://www.w3.org/1999/xlink" viewBox="0 0 89.6022 86.6757"><defs><style>.a{fill:url(#a);}.b{fill:url(#b);}.c{fill:url(#c);}</style><linearGradient id="a" x1="44.7984" y1="64.3712" x2="44.7984" y2="86.6757" gradientUnits="userSpaceOnUse"><stop offset="0.0056" stop-color="#f9e9e1"/><stop offset="0.4537" stop-color="#f7e7df"/><stop offset="0.6151" stop-color="#f1e1d8"/><stop offset="0.7302" stop-color="#e6d5cd"/><stop offset="0.8232" stop-color="#d6c4bc"/><stop offset="0.9028" stop-color="#c2afa6"/><stop offset="0.9722" stop-color="#a9958b"/><stop offset="1" stop-color="#9d887e"/></linearGradient><linearGradient id="b" x1="44.8011" y1="0" x2="44.8011" y2="7.5402" xlink:href="#a"/><linearGradient id="c" x1="44.8011" y1="12.0317" x2="44.8011" y2="19.5729" xlink:href="#a"/></defs><title>station-submarine</title><path class="a" d="M44.7985,64.3712A22.3045,22.3045,0,0,0,22.4937,86.6757H67.103A22.3044,22.3044,0,0,0,44.7985,64.3712Z"/><path class="b" d="M15.0008,1.06c5.5563,0,10.9129,1.1581,14.6965,3.1782A32.997,32.997,0,0,0,44.8927,7.54a33.5987,33.5987,0,0,0,15.0018-3.4A32.2056,32.2056,0,0,1,74.4068,1.06c5.5564,0,10.913,1.1581,14.6965,3.1782l.4989-.9356A32.9973,32.9973,0,0,0,74.4068,0,33.2627,33.2627,0,0,0,59.406,3.2009a32.5189,32.5189,0,0,1-14.5133,3.28c-5.5564,0-10.913-1.158-14.6966-3.1782A32.9968,32.9968,0,0,0,15.0008,0,33.2627,33.2627,0,0,0,0,3.2009l.4885.94A32.2053,32.2053,0,0,1,15.0008,1.06Z"/><path class="c" d="M59.406,15.2326a32.513,32.513,0,0,1-14.5133,3.2806c-5.5564,0-10.913-1.158-14.6966-3.1781a33.0013,33.0013,0,0,0-15.1953-3.3034A33.2751,33.2751,0,0,0,0,15.2326l.4885.94a32.218,32.218,0,0,1,14.5123-3.0809,32.3948,32.3948,0,0,1,14.6965,3.1792,32.997,32.997,0,0,0,15.1954,3.3023,33.5941,33.5941,0,0,0,15.0018-3.4006,32.218,32.218,0,0,1,14.5123-3.0809,32.3948,32.3948,0,0,1,14.6965,3.1792l.4989-.9355a33.002,33.002,0,0,0-15.1954-3.3034A33.2751,33.2751,0,0,0,59.406,15.2326Z"/></svg>