<svg xmlns="http://www.w3.org/2000/svg" viewBox="0 0 671.4238 23.4535"><defs><style>.a{opacity:0.25;}.b{fill:#f9e9e1;}</style></defs><title>warn-lines</title><g class="a"><path class="b" d="M7.7881,23.4535l-6.4831-.052A1.313,1.313,0,0,1,.3871,21.16L21.1627.3846A1.3132,1.3132,0,0,1,22.1017,0l6.4831.052a1.313,1.313,0,0,1,.9179,2.2413L8.7271,23.0689A1.3132,1.3132,0,0,1,7.7881,23.4535Z"/><path class="b" d="M35.2949,23.4535l-6.4831-.052a1.313,1.313,0,0,1-.9179-2.2413L48.67.3846A1.3132,1.3132,0,0,1,49.6084,0l6.4832.052A1.313,1.313,0,0,1,57.01,2.2933L36.2339,23.0689A1.3132,1.3132,0,0,1,35.2949,23.4535Z"/><path class="b" d="M62.8017,23.4535l-6.4831-.052a1.313,1.313,0,0,1-.9179-2.2413L76.1763.3846A1.3132,1.3132,0,0,1,77.1152,0l6.4832.052a1.313,1.313,0,0,1,.9179,2.2413L63.7407,23.0689A1.3132,1.3132,0,0,1,62.8017,23.4535Z"/><path class="b" d="M90.3085,23.4535l-6.4831-.052a1.313,1.313,0,0,1-.9179-2.2413L103.6831.3846A1.3132,1.3132,0,0,1,104.622,0l6.4832.052a1.313,1.313,0,0,1,.9179,2.2413L91.2475,23.0689A1.3132,1.3132,0,0,1,90.3085,23.4535Z"/><path class="b" d="M117.8153,23.4535l-6.4831-.052a1.313,1.313,0,0,1-.9179-2.2413L131.19.3846A1.3132,1.3132,0,0,1,132.1288,0l6.4832.052a1.313,1.313,0,0,1,.9179,2.2413L118.7543,23.0689A1.3134,1.3134,0,0,1,117.8153,23.4535Z"/><path class="b" d="M145.3221,23.4535l-6.4831-.052a1.3129,1.3129,0,0,1-.9179-2.2413L158.6967.3846A1.3132,1.3132,0,0,1,159.6356,0l6.4832.052a1.313,1.313,0,0,1,.9179,2.2413L146.2611,23.0689A1.3134,1.3134,0,0,1,145.3221,23.4535Z"/><path class="b" d="M173.3221,23.4535l-6.4831-.052a1.3129,1.3129,0,0,1-.9179-2.2413L186.6967.3846A1.3132,1.3132,0,0,1,187.6356,0l6.4832.052a1.313,1.313,0,0,1,.9179,2.2413L174.2611,23.0689A1.3134,1.3134,0,0,1,173.3221,23.4535Z"/><path class="b" d="M201.3221,23.4535l-6.4831-.052a1.3129,1.3129,0,0,1-.9179-2.2413L214.6967.3846A1.3132,1.3132,0,0,1,215.6356,0l6.4832.052a1.313,1.313,0,0,1,.9179,2.2413L202.2611,23.0689A1.3134,1.3134,0,0,1,201.3221,23.4535Z"/><path class="b" d="M229.3221,23.4535l-6.4831-.052a1.3129,1.3129,0,0,1-.9179-2.2413L242.6967.3846A1.3132,1.3132,0,0,1,243.6356,0l6.4832.052a1.313,1.313,0,0,1,.9179,2.2413L230.2611,23.0689A1.3134,1.3134,0,0,1,229.3221,23.4535Z"/><path class="b" d="M257.3221,23.4535l-6.4831-.052a1.3129,1.3129,0,0,1-.9179-2.2413L270.6967.3846A1.3132,1.3132,0,0,1,271.6356,0l6.4832.052a1.313,1.313,0,0,1,.9179,2.2413L258.2611,23.0689A1.3134,1.3134,0,0,1,257.3221,23.4535Z"/><path class="b" d="M285.3221,23.4535l-6.4831-.052a1.3129,1.3129,0,0,1-.9179-2.2413L298.6967.3846A1.3132,1.3132,0,0,1,299.6356,0l6.4832.052a1.313,1.313,0,0,1,.9179,2.2413L286.2611,23.0689A1.3134,1.3134,0,0,1,285.3221,23.4535Z"/><path class="b" d="M313.3221,23.4535l-6.4831-.052a1.3129,1.3129,0,0,1-.9179-2.2413L326.6967.3846A1.3132,1.3132,0,0,1,327.6356,0l6.4832.052a1.313,1.313,0,0,1,.9179,2.2413L314.2611,23.0689A1.3134,1.3134,0,0,1,313.3221,23.4535Z"/><path class="b" d="M341.3221,23.4535l-6.4831-.052a1.3129,1.3129,0,0,1-.9179-2.2413L354.6967.3846A1.3132,1.3132,0,0,1,355.6356,0l6.4832.052a1.313,1.313,0,0,1,.9179,2.2413L342.2611,23.0689A1.3134,1.3134,0,0,1,341.3221,23.4535Z"/><path class="b" d="M369.3221,23.4535l-6.4831-.052a1.3129,1.3129,0,0,1-.9179-2.2413L382.6967.3846A1.3132,1.3132,0,0,1,383.6356,0l6.4832.052a1.313,1.313,0,0,1,.9179,2.2413L370.2611,23.0689A1.3134,1.3134,0,0,1,369.3221,23.4535Z"/><path class="b" d="M397.3221,23.4535l-6.4831-.052a1.3129,1.3129,0,0,1-.9179-2.2413L410.6967.3846A1.3132,1.3132,0,0,1,411.6356,0l6.4832.052a1.313,1.313,0,0,1,.9179,2.2413L398.2611,23.0689A1.3134,1.3134,0,0,1,397.3221,23.4535Z"/><path class="b" d="M425.3221,23.4535l-6.4831-.052a1.3129,1.3129,0,0,1-.9179-2.2413L438.6967.3846A1.3132,1.3132,0,0,1,439.6356,0l6.4832.052a1.313,1.313,0,0,1,.9179,2.2413L426.2611,23.0689A1.3134,1.3134,0,0,1,425.3221,23.4535Z"/><path class="b" d="M453.3221,23.4535l-6.4831-.052a1.3129,1.3129,0,0,1-.9179-2.2413L466.6967.3846A1.3132,1.3132,0,0,1,467.6356,0l6.4832.052a1.313,1.313,0,0,1,.9179,2.2413L454.2611,23.0689A1.3134,1.3134,0,0,1,453.3221,23.4535Z"/><path class="b" d="M481.3221,23.4535l-6.4831-.052a1.3129,1.3129,0,0,1-.9179-2.2413L494.6967.3846A1.3132,1.3132,0,0,1,495.6356,0l6.4832.052a1.313,1.313,0,0,1,.9179,2.2413L482.2611,23.0689A1.3134,1.3134,0,0,1,481.3221,23.4535Z"/><path class="b" d="M509.3221,23.4535l-6.4831-.052a1.3129,1.3129,0,0,1-.9179-2.2413L522.6967.3846A1.3132,1.3132,0,0,1,523.6356,0l6.4832.052a1.313,1.313,0,0,1,.9179,2.2413L510.2611,23.0689A1.3134,1.3134,0,0,1,509.3221,23.4535Z"/><path class="b" d="M537.3221,23.4535l-6.4831-.052a1.3129,1.3129,0,0,1-.9179-2.2413L550.6967.3846A1.3132,1.3132,0,0,1,551.6356,0l6.4832.052a1.313,1.313,0,0,1,.9179,2.2413L538.2611,23.0689A1.3134,1.3134,0,0,1,537.3221,23.4535Z"/><path class="b" d="M565.3221,23.4535l-6.4831-.052a1.3129,1.3129,0,0,1-.9179-2.2413L578.6967.3846A1.3132,1.3132,0,0,1,579.6356,0l6.4832.052a1.313,1.313,0,0,1,.9179,2.2413L566.2611,23.0689A1.3134,1.3134,0,0,1,565.3221,23.4535Z"/><path class="b" d="M593.3221,23.4535l-6.4831-.052a1.3129,1.3129,0,0,1-.9179-2.2413L606.6967.3846A1.3132,1.3132,0,0,1,607.6356,0l6.4832.052a1.313,1.313,0,0,1,.9179,2.2413L594.2611,23.0689A1.3134,1.3134,0,0,1,593.3221,23.4535Z"/><path class="b" d="M621.3221,23.4535l-6.4831-.052a1.3129,1.3129,0,0,1-.9179-2.2413L634.6967.3846A1.3132,1.3132,0,0,1,635.6356,0l6.4832.052a1.313,1.313,0,0,1,.9179,2.2413L622.2611,23.0689A1.3134,1.3134,0,0,1,621.3221,23.4535Z"/><path class="b" d="M649.3221,23.4535l-6.4831-.052a1.3129,1.3129,0,0,1-.9179-2.2413L662.6967.3846A1.3132,1.3132,0,0,1,663.6356,0l6.4832.052a1.313,1.313,0,0,1,.9179,2.2413L650.2611,23.0689A1.3134,1.3134,0,0,1,649.3221,23.4535Z"/></g></svg>