<svg xmlns="http://www.w3.org/2000/svg" viewBox="0 0 923.4238 23.4535"><defs><style>.a{opacity:0.1;}.b{fill:#f9e9e1;}</style></defs><title>warn-lines-long</title><g class="a"><path class="b" d="M915.6356,0l6.4832.052a1.313,1.313,0,0,1,.9179,2.2413L902.2611,23.0689a1.3134,1.3134,0,0,1-.939.3846l-6.4831-.052a1.3129,1.3129,0,0,1-.9179-2.2413L914.6967.3846A1.3132,1.3132,0,0,1,915.6356,0Z"/><path class="b" d="M888.1288,0l6.4832.052a1.313,1.313,0,0,1,.9179,2.2413L874.7543,23.0689a1.3134,1.3134,0,0,1-.939.3846l-6.4831-.052a1.313,1.313,0,0,1-.9179-2.2413L887.19.3846A1.3132,1.3132,0,0,1,888.1288,0Z"/><path class="b" d="M860.622,0l6.4832.052a1.313,1.313,0,0,1,.9179,2.2413L847.2475,23.0689a1.3132,1.3132,0,0,1-.939.3846l-6.4831-.052a1.313,1.313,0,0,1-.9179-2.2413L859.6831.3846A1.3132,1.3132,0,0,1,860.622,0Z"/><path class="b" d="M833.1152,0l6.4832.052a1.313,1.313,0,0,1,.9179,2.2413L819.7407,23.0689a1.3132,1.3132,0,0,1-.939.3846l-6.4831-.052a1.313,1.313,0,0,1-.9179-2.2413L832.1763.3846A1.3132,1.3132,0,0,1,833.1152,0Z"/><path class="b" d="M805.6084,0l6.4832.052a1.313,1.313,0,0,1,.9179,2.2413L792.2339,23.0689a1.3132,1.3132,0,0,1-.939.3846l-6.4831-.052a1.313,1.313,0,0,1-.9179-2.2413L804.67.3846A1.3132,1.3132,0,0,1,805.6084,0Z"/><path class="b" d="M778.1017,0l6.4831.052a1.313,1.313,0,0,1,.9179,2.2413L764.7271,23.0689a1.3132,1.3132,0,0,1-.939.3846l-6.4831-.052a1.313,1.313,0,0,1-.9179-2.2413L777.1627.3846A1.3132,1.3132,0,0,1,778.1017,0Z"/><path class="b" d="M750.1017,0l6.4831.052a1.313,1.313,0,0,1,.9179,2.2413L736.7271,23.0689a1.3132,1.3132,0,0,1-.939.3846l-6.4831-.052a1.313,1.313,0,0,1-.9179-2.2413L749.1627.3846A1.3132,1.3132,0,0,1,750.1017,0Z"/><path class="b" d="M722.1017,0l6.4831.052a1.313,1.313,0,0,1,.9179,2.2413L708.7271,23.0689a1.3132,1.3132,0,0,1-.939.3846l-6.4831-.052a1.313,1.313,0,0,1-.9179-2.2413L721.1627.3846A1.3132,1.3132,0,0,1,722.1017,0Z"/><path class="b" d="M694.1017,0l6.4831.052a1.313,1.313,0,0,1,.9179,2.2413L680.7271,23.0689a1.3132,1.3132,0,0,1-.939.3846l-6.4831-.052a1.313,1.313,0,0,1-.9179-2.2413L693.1627.3846A1.3132,1.3132,0,0,1,694.1017,0Z"/><path class="b" d="M666.1017,0l6.4831.052a1.313,1.313,0,0,1,.9179,2.2413L652.7271,23.0689a1.3132,1.3132,0,0,1-.939.3846l-6.4831-.052a1.313,1.313,0,0,1-.9179-2.2413L665.1627.3846A1.3132,1.3132,0,0,1,666.1017,0Z"/><path class="b" d="M638.1017,0l6.4831.052a1.313,1.313,0,0,1,.9179,2.2413L624.7271,23.0689a1.3132,1.3132,0,0,1-.939.3846l-6.4831-.052a1.313,1.313,0,0,1-.9179-2.2413L637.1627.3846A1.3132,1.3132,0,0,1,638.1017,0Z"/><path class="b" d="M610.1017,0l6.4831.052a1.313,1.313,0,0,1,.9179,2.2413L596.7271,23.0689a1.3132,1.3132,0,0,1-.939.3846l-6.4831-.052a1.313,1.313,0,0,1-.9179-2.2413L609.1627.3846A1.3132,1.3132,0,0,1,610.1017,0Z"/><path class="b" d="M582.1017,0l6.4831.052a1.313,1.313,0,0,1,.9179,2.2413L568.7271,23.0689a1.3132,1.3132,0,0,1-.939.3846l-6.4831-.052a1.313,1.313,0,0,1-.9179-2.2413L581.1627.3846A1.3132,1.3132,0,0,1,582.1017,0Z"/><path class="b" d="M554.1017,0l6.4831.052a1.313,1.313,0,0,1,.9179,2.2413L540.7271,23.0689a1.3132,1.3132,0,0,1-.939.3846l-6.4831-.052a1.313,1.313,0,0,1-.9179-2.2413L553.1627.3846A1.3132,1.3132,0,0,1,554.1017,0Z"/><path class="b" d="M526.1017,0l6.4831.052a1.313,1.313,0,0,1,.9179,2.2413L512.7271,23.0689a1.3132,1.3132,0,0,1-.939.3846l-6.4831-.052a1.313,1.313,0,0,1-.9179-2.2413L525.1627.3846A1.3132,1.3132,0,0,1,526.1017,0Z"/><path class="b" d="M498.1017,0l6.4831.052a1.313,1.313,0,0,1,.9179,2.2413L484.7271,23.0689a1.3132,1.3132,0,0,1-.939.3846l-6.4831-.052a1.313,1.313,0,0,1-.9179-2.2413L497.1627.3846A1.3132,1.3132,0,0,1,498.1017,0Z"/><path class="b" d="M470.1017,0l6.4831.052a1.313,1.313,0,0,1,.9179,2.2413L456.7271,23.0689a1.3132,1.3132,0,0,1-.939.3846l-6.4831-.052a1.313,1.313,0,0,1-.9179-2.2413L469.1627.3846A1.3132,1.3132,0,0,1,470.1017,0Z"/><path class="b" d="M442.1017,0l6.4831.052a1.313,1.313,0,0,1,.9179,2.2413L428.7271,23.0689a1.3132,1.3132,0,0,1-.939.3846l-6.4831-.052a1.313,1.313,0,0,1-.9179-2.2413L441.1627.3846A1.3132,1.3132,0,0,1,442.1017,0Z"/><path class="b" d="M414.1017,0l6.4831.052a1.313,1.313,0,0,1,.9179,2.2413L400.7271,23.0689a1.3132,1.3132,0,0,1-.939.3846l-6.4831-.052a1.313,1.313,0,0,1-.9179-2.2413L413.1627.3846A1.3132,1.3132,0,0,1,414.1017,0Z"/><path class="b" d="M386.1017,0l6.4831.052a1.313,1.313,0,0,1,.9179,2.2413L372.7271,23.0689a1.3132,1.3132,0,0,1-.939.3846l-6.4831-.052a1.313,1.313,0,0,1-.9179-2.2413L385.1627.3846A1.3132,1.3132,0,0,1,386.1017,0Z"/><path class="b" d="M358.1017,0l6.4831.052a1.313,1.313,0,0,1,.9179,2.2413L344.7271,23.0689a1.3132,1.3132,0,0,1-.939.3846l-6.4831-.052a1.313,1.313,0,0,1-.9179-2.2413L357.1627.3846A1.3132,1.3132,0,0,1,358.1017,0Z"/><path class="b" d="M330.1017,0l6.4831.052a1.313,1.313,0,0,1,.9179,2.2413L316.7271,23.0689a1.3132,1.3132,0,0,1-.939.3846l-6.4831-.052a1.313,1.313,0,0,1-.9179-2.2413L329.1627.3846A1.3132,1.3132,0,0,1,330.1017,0Z"/><path class="b" d="M302.1017,0l6.4831.052a1.313,1.313,0,0,1,.9179,2.2413L288.7271,23.0689a1.3132,1.3132,0,0,1-.939.3846l-6.4831-.052a1.313,1.313,0,0,1-.9179-2.2413L301.1627.3846A1.3132,1.3132,0,0,1,302.1017,0Z"/><path class="b" d="M274.1017,0l6.4831.052a1.313,1.313,0,0,1,.9179,2.2413L260.7271,23.0689a1.3132,1.3132,0,0,1-.939.3846l-6.4831-.052a1.313,1.313,0,0,1-.9179-2.2413L273.1627.3846A1.3132,1.3132,0,0,1,274.1017,0Z"/><path class="b" d="M246.1017,0l6.4831.052a1.313,1.313,0,0,1,.9179,2.2413L232.7271,23.0689a1.3132,1.3132,0,0,1-.939.3846l-6.4831-.052a1.313,1.313,0,0,1-.9179-2.2413L245.1627.3846A1.3132,1.3132,0,0,1,246.1017,0Z"/><path class="b" d="M218.1017,0l6.4831.052a1.313,1.313,0,0,1,.9179,2.2413L204.7271,23.0689a1.3132,1.3132,0,0,1-.939.3846l-6.4831-.052a1.313,1.313,0,0,1-.9179-2.2413L217.1627.3846A1.3132,1.3132,0,0,1,218.1017,0Z"/><path class="b" d="M190.1017,0l6.4831.052a1.313,1.313,0,0,1,.9179,2.2413L176.7271,23.0689a1.3132,1.3132,0,0,1-.939.3846l-6.4831-.052a1.313,1.313,0,0,1-.9179-2.2413L189.1627.3846A1.3132,1.3132,0,0,1,190.1017,0Z"/><path class="b" d="M162.1017,0l6.4831.052a1.313,1.313,0,0,1,.9179,2.2413L148.7271,23.0689a1.3132,1.3132,0,0,1-.939.3846l-6.4831-.052a1.313,1.313,0,0,1-.9179-2.2413L161.1627.3846A1.3132,1.3132,0,0,1,162.1017,0Z"/><path class="b" d="M134.1017,0l6.4831.052a1.313,1.313,0,0,1,.9179,2.2413L120.7271,23.0689a1.3132,1.3132,0,0,1-.939.3846l-6.4831-.052a1.313,1.313,0,0,1-.9179-2.2413L133.1627.3846A1.3132,1.3132,0,0,1,134.1017,0Z"/><path class="b" d="M106.1017,0l6.4831.052a1.313,1.313,0,0,1,.9179,2.2413L92.7271,23.0689a1.3132,1.3132,0,0,1-.939.3846l-6.4831-.052a1.313,1.313,0,0,1-.9179-2.2413L105.1627.3846A1.3132,1.3132,0,0,1,106.1017,0Z"/><path class="b" d="M78.1017,0l6.4831.052a1.313,1.313,0,0,1,.9179,2.2413L64.7271,23.0689a1.3132,1.3132,0,0,1-.939.3846l-6.4831-.052a1.313,1.313,0,0,1-.9179-2.2413L77.1627.3846A1.3132,1.3132,0,0,1,78.1017,0Z"/><path class="b" d="M50.1017,0l6.4831.052a1.313,1.313,0,0,1,.9179,2.2413L36.7271,23.0689a1.3132,1.3132,0,0,1-.939.3846l-6.4831-.052a1.313,1.313,0,0,1-.9179-2.2413L49.1627.3846A1.3132,1.3132,0,0,1,50.1017,0Z"/><path class="b" d="M22.1017,0l6.4831.052a1.313,1.313,0,0,1,.9179,2.2413L8.7271,23.0689a1.3132,1.3132,0,0,1-.939.3846l-6.4831-.052A1.313,1.313,0,0,1,.3871,21.16L21.1627.3846A1.3132,1.3132,0,0,1,22.1017,0Z"/></g></svg>